<?xml version="1.0" encoding="utf-8"?>
<!-- Generator: Adobe Illustrator 22.0.1, SVG Export Plug-In . SVG Version: 6.00 Build 0)  -->
<svg version="1.1" id="_x34_04" xmlns="http://www.w3.org/2000/svg" xmlns:xlink="http://www.w3.org/1999/xlink" x="0px" y="0px"
	 viewBox="0 0 24.3 23" style="enable-background:new 0 0 24.3 23;" xml:space="preserve">
<style type="text/css">
	.st0{fill:#C6C4C2;}
	.st1{fill:#FFF7F0;}
	.st2{fill:#46A0F2;}
	.st3{fill:#FFC84D;}
	.st4{fill:#939393;}
	.st5{fill:#B7CCEA;}
	.st6{fill:#EAA465;}
</style>
<g>
	<path class="st1" d="M9.8,13C9.8,13,9.8,13,9.8,13c-0.6,0-1.1,0-1.4,0c-0.5,0.1-1,0.4-1.3,0.8c-0.5,0.9-0.9,1.8-0.9,1.8
		c-0.1,0.1,0,0.3,0,0.4c0,0.1,0.1,0.1,0.2,0.2c0.2,0.1,0.5,0,0.6-0.2c0,0,0.4-0.9,0.9-1.7c0.1-0.2,0.4-0.4,0.7-0.4
		c0.3,0,0.8-0.1,1.4,0c-0.4,0.4-0.8,0.8-1.2,1.3c-0.2,0.2-0.3,0.6-0.2,0.9c0.1,0.7,0.5,2.3,0.6,2.5c0.1,0.2,0.4,0.3,0.6,0.1
		c0.2-0.1,0.2-0.3,0.2-0.5c0-0.1-0.4-1.4-0.5-2.2c0-0.1,0-0.2,0.1-0.3c0,0,0,0,0,0l1.6-1.1c0.1,0.1,0.1,0.1,0.1,0.1
		C10.8,14.2,10.4,13.4,9.8,13z"/>
	<path class="st1" d="M12.8,9.7C12.9,9.5,13,9.4,13,9.3c0.2-0.2,0.1-0.5,0-0.6c-0.2-0.2-0.5-0.1-0.6,0c0,0-0.1,0.2-0.3,0.4
		C12.3,9.5,12.5,9.6,12.8,9.7z"/>
	<path class="st2" d="M15.5,14.8c0-1.3-1-2.4-2.1-3.4c-0.8-0.7-0.7-1.4-0.6-1.8c-0.3-0.1-0.6-0.3-0.7-0.5c-0.2,0.3-0.3,0.7-0.3,1.2
		c0,0.4,0.2,0.9,0.5,1.2c-0.6,0.3-1.7,0.9-2.5,1.4c0.6,0.4,1,1.2,1.4,1.8c0,0,0,0,0,0s0.3-0.6,2.6-1.6c0.5,0.6,0.7,1,0.7,1.5
		C14.9,14.7,15.2,14.7,15.5,14.8z"/>
	<path class="st1" d="M15.4,15.5c0.1-0.2,0.1-0.5,0.1-0.7c-0.3-0.1-0.6-0.2-0.9-0.1c0,0.2,0,0.4,0,0.6c0,0.1,0,0.3,0.1,0.4
		c0.1,0.1,0.1,0.2,0.3,0.2C15.1,15.9,15.4,15.8,15.4,15.5z"/>
	<circle class="st1" cx="15" cy="11.4" r="0.9"/>
</g>
</svg>
