<?xml version="1.0" encoding="utf-8"?>
<!-- Generator: Adobe Illustrator 22.0.1, SVG Export Plug-In . SVG Version: 6.00 Build 0)  -->
<svg version="1.1" id="_x34_04" xmlns="http://www.w3.org/2000/svg" xmlns:xlink="http://www.w3.org/1999/xlink" x="0px" y="0px"
	 viewBox="0 0 104 77" style="enable-background:new 0 0 104 77;" xml:space="preserve">
<style type="text/css">
	.st0{fill:#C6C4C2;}
	.st1{fill:#FFF7F0;}
	.st2{fill:#46A0F2;}
	.st3{fill:#FFC84D;}
	.st4{fill:#939393;}
	.st5{fill:#B7CCEA;}
	.st6{fill:#EAA465;}
</style>
<g>
	<path class="st0" d="M81.7,18.9l-0.4-2.4c2,0.2,5.3,1,6,5.4c0.7,4.3-2.1,6.4-3.8,7.3L83,26.5L81.7,18.9z"/>
	<path class="st0" d="M80.8,29.9l-21.5,3.7c0.2-0.5,0.3-1,0.3-1.6l20.9-3.6L80.8,29.9z"/>
	<polygon class="st0" points="78.6,17.1 78.7,18 75.2,18.6 	"/>
	<polygon class="st0" points="78.5,41 78.6,41.7 73.6,42.5 73.5,41.8 	"/>
	<polygon class="st6" points="68.9,18.3 64.1,20.5 31,26.2 33.4,24.5 	"/>
	<path class="st4" d="M50,30.6l-26.2,4.5l-0.4-2.4c-0.1-0.6-0.6-1-1.2-1c1.5-1.2,3.2-1.7,3.5-1.7l53.5-9.3l0.9,4.9l-22.2,3.8
		c-0.8,0.1-1.2,0.8-1.1,1.6c0.2,0.9,0,1.7-0.3,2.2c-0.6,0.8-1.7,1-1.8,1L50.8,35c-0.4,0.1-0.8,0.3-1,0.7c-0.1,0.2,0,0.4,0,0.6
		c0,0.1-0.1,0.3-0.1,0.4c0,0,0,0.1,0.1,0.1c0,0,0,0,0,0.1l6.7,17.3l-1.3,0.2L44.4,34.4l6.1-1.1c0.8-0.1,1.3-0.9,1.1-1.6
		C51.5,31,50.8,30.5,50,30.6z"/>
	<polygon class="st0" points="44.1,55.1 44.5,56.2 23.3,59.9 21.9,58.9 22.3,58.9 	"/>
	<path class="st5" d="M40,45.1l3,7.4l-11.6,2l-1-5.9C31,48.1,33.3,47,40,45.1z"/>
	<path class="st5" d="M27.8,50l0.9,5l-5.1,0.9C23.7,54,24.6,51.2,27.8,50z"/>
	<path class="st0" d="M27.5,42.6c-0.6,0.1-2.6,0.3-4.4-0.6l0.4-0.1c0.7-0.1,1.2-0.8,1.1-1.6l-0.4-2.4l17.2-3l10.8,19.9l-5,0.9
		L40.1,38c-0.1-0.4-0.4-0.7-0.8-0.8c-0.4-0.1-0.8-0.1-1.1,0.1L27.5,42.6z"/>
	<path class="st0" d="M20.9,34.6l0.8,4.9L21,39.6c-0.3-0.6-0.5-1.2-0.7-1.9c-0.2-1.2-0.1-2.1,0.1-3L20.9,34.6z"/>
	<path class="st0" d="M53.3,40.2L86.9,34l0.9,1l1.7,9.8l-4.2,2.3l0.8,2.1l-1.8,1.5l2.2,1.2l1.3,1.3l0.6,1.3l-1.1,2.1L86.1,58
		l0.5,0.7l1.5,1.8l-3.8,1.3l-4.3,1.9c0,0-9.7-9.4-21.8-8.9c-6.9-18.4-6.9-18.4-6.9-18.4l3.7-0.6l25-4.2V34L53.3,40.2z"/>
	<path d="M83.8,60.1c-0.8,0.1-1.5-0.4-1.6-1.1c-0.1-0.8,0.4-1.5,1.1-1.6l4.1-0.7c0.1,0.9,0.3,1.8,0.5,2.7L83.8,60.1z"/>
	<path d="M86.6,51.9L74.2,54c-0.8,0.1-1.5-0.4-1.6-1.1c-0.1-0.8,0.4-1.5,1.1-1.6l12.4-2.1C86.3,50.5,86.4,50.9,86.6,51.9z"/>
	<path d="M78.6,57.1c-0.8,0.1-1.5-0.4-1.6-1.1c-0.1-0.7,0.4-1.5,1.1-1.6l11.1-1.9c-0.2,0.8-0.2,1.4,0,2.8l-2,0.3L78.6,57.1z"/>
	<path d="M69.5,51c-0.8,0.1-1.5-0.4-1.6-1.1c-0.1-0.7,0.4-1.5,1.1-1.6l20.5-3.5c0.2,1.2,0.2,1.5,0.5,2.7L69.5,51z"/>
	<path d="M81.7,18.9l1.3,7.7l0.4,2.6c1.8-0.9,4.6-3,3.8-7.3c-0.8-4.3-4-5.2-6-5.4L81.7,18.9z M78.6,41.7L78.5,41l-5,0.9l0.1,0.7
		L78.6,41.7z M78.7,18l-0.2-0.9l-3.4,1.5L78.7,18z M80.5,28.3L59.6,32c0,0.6-0.1,1.1-0.3,1.6l21.5-3.7L80.5,28.3z M68.9,18.3
		l-35.6,6.2L31,26.2l33.1-5.7L68.9,18.3z M40,45.1c-6.7,1.9-8.9,3.1-9.6,3.5l1,5.9l11.6-2L40,45.1z M21.8,39.5l-0.8-4.9l-0.5,0.1
		c-0.2,0.9-0.3,1.8-0.1,3c0.1,0.7,0.4,1.3,0.7,1.9L21.8,39.5z M23.3,59.9l21.3-3.7l-0.4-1.1l-21.7,3.8l-0.4,0.1L23.3,59.9z
		 M23.5,55.9l5.1-0.9l-0.9-5C24.6,51.2,23.7,54,23.5,55.9z M23.8,35.2L50,30.6c0.8-0.1,1.5,0.4,1.6,1.1c0.1,0.7-0.4,1.5-1.1,1.6
		l-6.1,1.1l10.8,19.9l1.3-0.2l-6.7-17.3c0,0,0,0,0-0.1c0,0-0.1-0.1-0.1-0.1c0-0.2,0.1-0.3,0.1-0.4c0-0.2-0.1-0.4,0-0.6
		c0.2-0.4,0.6-0.6,1-0.7l3.9-0.7c0.1,0,1.2-0.2,1.8-1c0.4-0.5,0.5-1.3,0.3-2.2c-0.1-0.8,0.4-1.5,1.1-1.6l22.2-3.8l-0.9-4.9L25.7,30
		c-0.3,0.1-2.1,0.5-3.5,1.7c0.6,0.1,1.1,0.4,1.2,1L23.8,35.2z M24.3,37.9l0.4,2.4c0.1,0.8-0.4,1.5-1.1,1.6L23.2,42
		c1.8,0.9,3.8,0.7,4.4,0.6l10.6-5.4c0.4-0.2,0.8-0.2,1.1-0.1c0.3,0.1,0.7,0.4,0.8,0.8l7.2,17.7l5-0.9L41.5,34.9L24.3,37.9z
		 M17.6,38.1c-0.4-2.2-0.1-4,0.6-5.4c0,0,0,0,0,0c1.4-3.2,4.5-4.8,6.7-5.3l7.1-5.2c0.2-0.1,0.4-0.2,0.6-0.3l46.8-8.1h0
		c0,0,0,0,0.1,0c3.1-0.4,9.3,0.7,10.6,7.6c1.2,6.9-4.3,10.2-7.3,11l-0.1,0c0,0,0,0,0,0L53,37.5l0.5,1.4c9.1-2,20.6-4.3,34-6.6
		c-0.1,0.7,0.2,1.8,0.3,2.7c-10.1,1.8-19,3.5-26.8,5.1l0.8,4.5l9-1.6l-0.4-2c-0.1-0.8,0.4-1.5,1.1-1.6l7.7-1.3
		c0.8-0.1,1.5,0.4,1.6,1.1l0.4,2l1.3-0.2c0.2,0.9,0.3,1.8,0.5,2.7l-2.7,0.5l-7.7,1.3l-11.8,2c-0.8,0.1-1.5-0.4-1.6-1.1l-1-5.7
		c-1.3,0.3-2.6,0.6-3.8,0.8l4.8,12.3c10.2-1.1,18.8,6.1,21,8.2l7.9-1.3c0.1,0.9,0.3,1.8,0.5,2.7L80,64.8c-0.4,0.1-0.9-0.1-1.2-0.4
		c-0.1-0.1-9.5-9.7-20.2-7.8l-35.4,6.1c-0.3,0.1-0.7,0-1-0.2l-4.5-3.2c-0.5-0.3-0.7-0.9-0.6-1.4c0.1-0.5,0.6-1,1.1-1l2.5-0.4
		c0.1-3.3,1.7-8.1,7.3-9.4c1-1,3.7-2.4,10.9-4.5l-0.9-2.1l-9.5,4.8c-0.1,0-0.2,0.1-0.3,0.1c-0.2,0-4,0.8-7.2-1.3
		C19.2,42.8,18,40.8,17.6,38.1z"/>
</g>
</svg>
