<?xml version="1.0" encoding="utf-8"?>
<!-- Generator: Adobe Illustrator 22.0.1, SVG Export Plug-In . SVG Version: 6.00 Build 0)  -->
<svg version="1.1" id="_x34_04" xmlns="http://www.w3.org/2000/svg" xmlns:xlink="http://www.w3.org/1999/xlink" x="0px" y="0px"
	 viewBox="0 0 108.9 62.2" style="enable-background:new 0 0 108.9 62.2;" xml:space="preserve">
<style type="text/css">
	.st0{fill:#C6C4C2;}
	.st1{fill:#FFF7F0;}
	.st2{fill:#46A0F2;}
	.st3{fill:#FFC84D;}
	.st4{fill:#939393;}
	.st5{fill:#B7CCEA;}
	.st6{fill:#EAA465;}
</style>
<g>
	<polygon class="st0" points="98.2,23.4 99.3,24.4 34.9,21.1 36.1,20 97.5,23.2 	"/>
	<path class="st4" d="M90.1,26.7l6.6,0.3c-1.7,2.9-6.9,5.5-14.5,6.9C86.5,31.3,89.1,28.1,90.1,26.7z"/>
	<path class="st4" d="M86.7,26.5c-1.9,2.3-6,5.9-12.2,7.5c2.8-2.7,4.8-6.2,5.6-7.9L86.7,26.5z"/>
	<polygon class="st0" points="84.6,19.8 49.8,18 55.6,17.1 79.2,18.3 	"/>
	<polygon class="st5" points="75.2,14.2 76.3,15.4 72.7,15.3 72.8,14 	"/>
	<polygon class="st5" points="70,13.9 69.9,15.1 68.9,15.1 69,13.8 	"/>
	<polygon class="st5" points="66.2,13.7 66.1,14.9 65.1,14.9 65.1,13.6 	"/>
	<polygon class="st5" points="62.4,13.5 62.3,14.7 58.9,14.6 60.1,13.4 	"/>
	<path class="st4" d="M54.2,24.8c0.6,1.7,2.2,5.4,4.8,8.4c-6.2-2.2-9.8-6.3-11.5-8.8L54.2,24.8z"/>
	<path class="st4" d="M44.2,24.3c0.8,1.5,3.1,5.1,7.2,8.1C43.8,30.3,38.7,27,37.3,24L44.2,24.3z"/>
	<path class="st0" d="M41.9,44.4c-2.2-3.1-8.1-9.6-18.4-11.6c0.2-0.4,0.4-0.9,0.6-1.5l7,0.4c0.8,0,1.4-0.6,1.5-1.3
		c0-0.8-0.6-1.4-1.3-1.5l-6.4-0.3c1-2.5,4.1-4.6,9.6-4.6c1.1,3.9,5.6,7.3,12.3,9.8L35,33.2c-0.8,0-1.4,0.6-1.5,1.3
		c0,0.8,0.6,1.4,1.3,1.5l12.8,0.7l-0.8,1.1l-4.5-0.2c-0.8,0-1.4,0.6-1.5,1.3s0.6,1.4,1.3,1.5l2.7,0.1L41.9,44.4z"/>
	<path class="st4" d="M77,26c-1.9,3.5-5.8,8.8-10.3,8.8c-4.8-0.4-8-6.6-9.4-9.8L77,26z"/>
	<path class="st0" d="M10.4,40.6c0.2-0.1,7-7,7-7s2.7-0.1,2.9,0s17.3,3.5,21.3,13c-7.9,15.5-7.9,15.5-7.9,15.5s-22.2-0.6-22.1-0.8
		c0.1-0.2,0.1-3.5,0.1-3.5l2.4-0.7l0.3-3.2l2.2-0.6L12,49.7c0,0,3.2-0.3,3.3-0.5s1-3.3,1-3.3l-1.3-1.4l-4.7-2.9V40.6z"/>
	<path d="M76.3,15.4l-1.1-1.3L72.8,14l-0.1,1.2L76.3,15.4z M74.5,34c6.3-1.6,10.3-5.2,12.2-7.5L80,26.2C79.2,27.8,77.3,31.3,74.5,34
		z M96.6,27l-6.6-0.3c-1,1.4-3.6,4.6-7.9,7.2C89.8,32.5,95,29.9,96.6,27z M62.3,14.7l0.1-1.2l-2.2-0.1l-1.2,1.2L62.3,14.7z
		 M66.1,14.9l0.1-1.2l-1.1-0.1l-0.1,1.2L66.1,14.9z M66.7,34.8c4.5,0.1,8.4-5.3,10.3-8.8l-19.7-1C58.6,28.2,61.9,34.4,66.7,34.8z
		 M79.2,18.3l-23.7-1.2L49.8,18l34.9,1.8L79.2,18.3z M68.9,15.1l1.1,0.1l0.1-1.2l-1,0L68.9,15.1z M47.6,24.5
		C49.2,27,52.9,31,59,33.3c-2.6-3-4.1-6.7-4.8-8.4L47.6,24.5z M34.9,21.1l64.4,3.3l-1.1-1l-0.7-0.2L36.1,20L34.9,21.1z M37.3,24
		c1.4,3.1,6.5,6.3,14.2,8.5c-4.1-3-6.4-6.6-7.2-8.1L37.3,24z M31.1,31.7l-7-0.4c-0.2,0.6-0.3,1.1-0.6,1.5
		c10.3,2.1,16.1,8.5,18.4,11.6l2.9-4l-2.7-0.1c-0.8,0-1.3-0.7-1.3-1.5s0.7-1.3,1.5-1.3l4.5,0.2l0.8-1.1L34.8,36
		c-0.8,0-1.3-0.7-1.3-1.5c0-0.8,0.7-1.3,1.5-1.3l11.7,0.6c-6.7-2.5-11.2-5.9-12.3-9.8c-5.5,0-8.6,2-9.6,4.6l6.4,0.3
		c0.8,0,1.3,0.7,1.3,1.5C32.5,31.1,31.8,31.7,31.1,31.7z M33.3,59.7l-23-1.2c0.1-1,0.1-1.9,0.1-2.8l2,0.1L34.8,57l0.5-1l-22.7-1.2
		c0.1-1.4,0.1-1.4,0.2-2.8l23.9,1.2l0.5-1l-26.6-1.4c0.1-1,0.1-1.4,0.1-2.8l27.9,1.5l0.5-1L15,47.4c0.1-1.2,0.1-1.6,0.1-2.8
		l24.4,1.3c-2.4-3.1-8.6-9.7-19.4-10.8l-0.3,6.3c0,0.8-0.7,1.3-1.5,1.3l-9.2-0.5c0.1-0.9,0.1-1.8,0.1-2.8l7.9,0.4l0.2-5
		c-0.6,0-1.2-0.1-1.8-0.1c0.1-0.9,0.1-2.1,0.3-2.7c1,0,1.9,0.1,2.9,0.1c0.4,0,1.5,0,2.1-0.5c0.4-0.3,0.6-0.8,0.6-1.6
		c0-0.1,0-0.1,0-0.2c0,0,0,0,0,0c0,0,0,0,0-0.1c0.3-3.6,3.1-7.1,8.7-8.1c0.1-0.1,0.1-0.3,0.2-0.3l4-3.7c0,0,0,0,0,0
		c0.2-0.2,0.4-0.3,0.7-0.3L55,14.5l3.7-3.5c0.3-0.3,0.6-0.4,1-0.4l16.2,0.8c0.4,0,0.7,0.2,1,0.4l3.5,3.9l17.5,4.7l0.7,0
		c0.4,0,0.7,0.2,1,0.5c0.1,0,0.2,0.1,0.3,0.2l3.9,3.8c0.4,0.4,0.5,1,0.3,1.6c-0.2,0.5-0.8,0.8-1.3,0.8l-3.1-0.2
		C97.2,34,83.7,38.3,67,37.6c-0.1,0-0.2,0-0.2,0c0,0-0.1,0-0.1,0c-0.1,0-0.2,0-0.3,0c-5.2-0.3-10.1-1-14.4-2.1l-8.9,12.1L34.7,63
		c-0.3,0.5-0.8,0.7-1.3,0.7l-23.3-1.2c0-0.9,0.1-1.8,0.1-2.8l22.4,1.2L33.3,59.7z"/>
</g>
</svg>
