<?xml version="1.0" encoding="utf-8"?>
<!-- Generator: Adobe Illustrator 22.0.1, SVG Export Plug-In . SVG Version: 6.00 Build 0)  -->
<svg version="1.1" id="_x34_04" xmlns="http://www.w3.org/2000/svg" xmlns:xlink="http://www.w3.org/1999/xlink" x="0px" y="0px"
	 viewBox="0 0 28.5 26" style="enable-background:new 0 0 28.5 26;" xml:space="preserve">
<style type="text/css">
	.st0{fill:#C6C4C2;}
	.st1{fill:#FFF7F0;}
	.st2{fill:#46A0F2;}
	.st3{fill:#FFC84D;}
	.st4{fill:#939393;}
	.st5{fill:#B7CCEA;}
	.st6{fill:#EAA465;}
</style>
<g>
	<path class="st1" d="M13.2,17C13.2,17,13.2,17,13.2,17c0.2,0.7,0.4,1.3,0.6,1.7c0.3,0.7,0.9,1.1,1.6,1.3c1.3,0.3,2.6,0.4,2.6,0.4
		c0.2,0,0.4-0.1,0.5-0.2c0.1-0.1,0.1-0.2,0.1-0.3c0-0.3-0.2-0.6-0.5-0.6c0,0-1.3-0.1-2.5-0.4c-0.3-0.1-0.6-0.3-0.8-0.6
		c-0.2-0.4-0.4-1-0.6-1.7c0.6,0.3,1.3,0.6,2.1,0.9c0.4,0.1,0.8,0.1,1.2-0.1c0.9-0.4,2.7-1.5,2.8-1.8c0.2-0.3,0.1-0.6-0.1-0.8
		c-0.2-0.2-0.5-0.1-0.7,0c-0.2,0.1-1.6,1.1-2.4,1.5c-0.1,0-0.2,0.1-0.4,0c0,0,0,0,0,0l-2-1.5c0.1-0.1,0.1-0.2,0.1-0.2
		C14.3,15.3,13.5,16.1,13.2,17z"/>
	<path class="st1" d="M7.9,14.7c-0.3,0-0.4-0.1-0.5-0.1c-0.3-0.1-0.6,0-0.8,0.3c-0.1,0.3,0,0.6,0.3,0.8c0,0,0.3,0.1,0.6,0.2
		C7.9,15.5,7.9,15.1,7.9,14.7z"/>
	<path class="st3" d="M13.1,9.2c-1.6,0.6-2.5,2.2-3.2,4c-0.5,1.3-1.4,1.5-1.9,1.4c0,0.4-0.1,0.8-0.4,1.1c0.4,0.1,1,0.1,1.6-0.2
		c0.5-0.2,1-0.6,1.3-1.1c0.7,0.6,1.9,1.8,2.7,2.5c0.3-0.9,1-1.7,1.6-2.4c0-0.1,0-0.1,0-0.1s-0.8-0.2-3.1-2.6c0.5-0.8,1-1.3,1.5-1.5
		C13.2,10,13.1,9.7,13.1,9.2z"/>
	<path class="st1" d="M14,9.1c-0.3,0-0.6,0.1-0.9,0.2c0,0.4,0.1,0.8,0.2,1.1c0.2-0.1,0.5-0.2,0.7-0.2c0.2,0,0.3-0.1,0.4-0.2
		c0.1-0.1,0.1-0.2,0.1-0.4C14.6,9.3,14.3,9,14,9.1z"/>
	<circle class="st1" cx="9.2" cy="11.3" r="1.2"/>
</g>
</svg>
