<?xml version="1.0" encoding="utf-8"?>
<!-- Generator: Adobe Illustrator 22.0.1, SVG Export Plug-In . SVG Version: 6.00 Build 0)  -->
<svg version="1.1" id="Calque_1" xmlns="http://www.w3.org/2000/svg" xmlns:xlink="http://www.w3.org/1999/xlink" x="0px" y="0px"
	 viewBox="0 0 200 200" style="enable-background:new 0 0 200 200;" xml:space="preserve">
<style type="text/css">
	.st0{fill:none;stroke:#292CD6;stroke-width:6;stroke-linecap:round;stroke-linejoin:round;stroke-miterlimit:10;}
	.st1{fill:#292CD6;}
</style>
<g>
	<path class="st1" d="M182.9,41.8h-39.5V27.5c0-5.4-4.4-9.8-9.8-9.8H17.1c-5.4,0-9.8,4.4-9.8,9.8v34.6c0,5.4,4.4,9.8,9.8,9.8h11.8
		v76.3c0,5.4,4.4,9.8,9.8,9.8h69.1v14.3c0,5.4,4.4,9.8,9.8,9.8h43.9c5.4,0,9.8-4.4,9.8-9.8v-14.3h11.5c5.4,0,9.8-4.4,9.8-9.8V51.7
		C192.7,46.2,188.3,41.8,182.9,41.8z M150.9,157c3.9-3.3,6.4-8.2,6.4-13.7c0-9.8-8-17.8-17.8-17.8s-17.8,8-17.8,17.8
		c0,5.5,2.5,10.4,6.4,13.7c-6.1,2.1-11.2,5.8-14.5,9.9v-42.2c0-2.1,1.7-3.8,3.8-3.8h43.9c2.1,0,3.8,1.7,3.8,3.8V167
		C162.1,162.8,157,159.2,150.9,157z M127.8,143.4c0-6.5,5.3-11.8,11.8-11.8s11.8,5.3,11.8,11.8s-5.3,11.8-11.8,11.8
		S127.8,149.8,127.8,143.4z M161.5,115h-39.1V77.3h64.3v22L170.4,84c-0.7-0.6-1.6-0.9-2.6-0.8c-0.9,0.2-1.7,0.8-2.2,1.6l-9.9,19.4
		l-13.5-11.7c-0.6-0.6-1.5-0.8-2.4-0.7c-0.8,0.1-1.6,0.6-2.1,1.3l-10.4,15.3c-0.9,1.4-0.6,3.2,0.8,4.2c0.5,0.4,1.1,0.5,1.7,0.5
		c1,0,1.9-0.5,2.5-1.3l8.5-12.5l13.9,12c0.7,0.6,1.6,0.8,2.5,0.7c0.9-0.2,1.7-0.8,2.1-1.6l9.8-19.3l17.5,16.5v21.9h-15.3v-4.7
		C171.3,119.4,166.9,115,161.5,115z M17.1,66c-2.1,0-3.8-1.7-3.8-3.8V27.5c0-2.1,1.7-3.8,3.8-3.8h116.4c2.1,0,3.8,1.7,3.8,3.8v14.3
		H38.7c-5.4,0-9.8,4.4-9.8,9.8V66H17.1z M38.7,152.1c-2.1,0-3.8-1.7-3.8-3.8V51.7c0-2.1,1.7-3.8,3.8-3.8h144.2
		c2.1,0,3.8,1.7,3.8,3.8v19.7h-67.3c-1.7,0-3,1.3-3,3v40.7c-4.9,0.6-8.6,4.7-8.6,9.7v27.3H38.7z M117.6,176.3
		c-0.6,0-1.2-0.2-1.7-0.4c1-6.2,10.8-14.8,23.7-14.8c12.8,0,22.7,8.6,23.7,14.8c-0.5,0.3-1.1,0.4-1.7,0.4H117.6z M182.9,152.1h-11.5
		v-16.6h15.3v12.8C186.7,150.4,185,152.1,182.9,152.1z"/>
	<path class="st1" d="M43.8,62.8h89.3c1.7,0,3-1.3,3-3s-1.3-3-3-3H43.8c-1.7,0-3,1.3-3,3S42.1,62.8,43.8,62.8z"/>
	<path class="st1" d="M96.4,71.3H43.8c-1.7,0-3,1.3-3,3s1.3,3,3,3h52.7c1.7,0,3-1.3,3-3S98.1,71.3,96.4,71.3z"/>
	<path class="st1" d="M96.4,82H43.8c-1.7,0-3,1.3-3,3s1.3,3,3,3h52.7c1.7,0,3-1.3,3-3S98.1,82,96.4,82z"/>
	<path class="st1" d="M96.4,92.7H43.8c-1.7,0-3,1.3-3,3s1.3,3,3,3h52.7c1.7,0,3-1.3,3-3S98.1,92.7,96.4,92.7z"/>
	<path class="st1" d="M43.8,109.3h41.3c1.7,0,3-1.3,3-3s-1.3-3-3-3H43.8c-1.7,0-3,1.3-3,3S42.1,109.3,43.8,109.3z"/>
	<path class="st1" d="M96.4,114H43.8c-1.7,0-3,1.3-3,3s1.3,3,3,3h52.7c1.7,0,3-1.3,3-3S98.1,114,96.4,114z"/>
	<path class="st1" d="M96.4,124.7H43.8c-1.7,0-3,1.3-3,3s1.3,3,3,3h52.7c1.7,0,3-1.3,3-3S98.1,124.7,96.4,124.7z"/>
	<path class="st1" d="M85.1,135.3H43.8c-1.7,0-3,1.3-3,3s1.3,3,3,3h41.3c1.7,0,3-1.3,3-3S86.7,135.3,85.1,135.3z"/>
	<path class="st1" d="M64.1,33c0-1.7-1.3-3-3-3h-41c-1.7,0-3,1.3-3,3s1.3,3,3,3h41C62.7,36,64.1,34.6,64.1,33z"/>
	<path class="st1" d="M75.3,36h11.6c1.7,0,3-1.3,3-3s-1.3-3-3-3H75.3c-1.7,0-3,1.3-3,3S73.7,36,75.3,36z"/>
</g>
</svg>
