<?xml version="1.0" encoding="utf-8"?>
<!-- Generator: Adobe Illustrator 22.0.1, SVG Export Plug-In . SVG Version: 6.00 Build 0)  -->
<svg version="1.1" id="Calque_1" xmlns="http://www.w3.org/2000/svg" xmlns:xlink="http://www.w3.org/1999/xlink" x="0px" y="0px"
	 viewBox="0 0 200 200" style="enable-background:new 0 0 200 200;" xml:space="preserve">
<style type="text/css">
	.st0{fill:none;stroke:#292CD6;stroke-width:6;stroke-linecap:round;stroke-linejoin:round;stroke-miterlimit:10;}
	.st1{fill:#292CD6;}
</style>
<g>
	<path class="st1" d="M163.3,32.5h-5.1V26c0-1.7-1.3-3-3-3s-3,1.3-3,3v6.5h-21.6V26c0-1.7-1.3-3-3-3c-1.7,0-3,1.3-3,3v6.5H103V26
		c0-1.7-1.3-3-3-3s-3,1.3-3,3v6.5H75.4V26c0-1.7-1.3-3-3-3s-3,1.3-3,3v6.5H47.8V26c0-1.7-1.3-3-3-3s-3,1.3-3,3v6.5h-5.1
		c-6.9,0-12.5,5.6-12.5,12.5v24.5v90.2c0,6.9,5.6,12.5,12.5,12.5h126.6c6.9,0,12.5-5.6,12.5-12.5V69.5V45
		C175.8,38.1,170.2,32.5,163.3,32.5z M30.2,45c0-3.6,2.9-6.5,6.5-6.5h5.1V45c0,1.7,1.3,3,3,3s3-1.3,3-3v-6.5h21.6V45
		c0,1.7,1.3,3,3,3s3-1.3,3-3v-6.5H97V45c0,1.7,1.3,3,3,3s3-1.3,3-3v-6.5h21.6V45c0,1.7,1.3,3,3,3c1.7,0,3-1.3,3-3v-6.5h21.6V45
		c0,1.7,1.3,3,3,3s3-1.3,3-3v-6.5h5.1c3.6,0,6.5,2.9,6.5,6.5v21.5H30.2V45z M169.8,159.7c0,3.6-2.9,6.5-6.5,6.5H36.7
		c-3.6,0-6.5-2.9-6.5-6.5V72.5h139.7V159.7z"/>
	<path class="st1" d="M79.3,108.9c0,12.7-6.8,22.5-9.8,26.1c-1.5,1.9-2.4,4.3-2.4,6.8c0,6,4.8,10.8,10.8,10.8h46.2
		c6,0,10.8-4.8,10.8-10.8c0-2.5-0.8-4.9-2.4-6.8c-2.9-3.6-9.8-13.5-9.8-26.1c0-0.5,0-0.9,0-1.3c-0.1-2.1-0.5-3.9-1.1-5.6
		c-2.6-7.9-9.5-13.5-17.6-14.7v-5.6c0-1.7-1.3-3-3-3s-3,1.3-3,3v5.6c-8.1,1.1-15,6.7-17.6,14.7c-0.6,1.6-1,3.5-1.1,5.5
		C79.3,108,79.3,108.4,79.3,108.9z M85.3,108.9c0-0.3,0-0.7,0-1c0.1-1.5,0.3-2.7,0.7-3.8c0,0,0-0.1,0-0.1c1.8-5.5,6.4-9.4,12-10.5
		v5.1c0,1.7,1.3,3,3,3s3-1.3,3-3v-5.1c5.5,1.1,10.1,5,12,10.5c0,0,0,0.1,0,0.1c0.4,1.1,0.6,2.3,0.7,3.8c0,0.3,0,0.7,0,1
		c0,14.6,7.8,25.8,11.1,29.9c0.7,0.8,1.1,1.9,1.1,3c0,2.6-2.2,4.8-4.8,4.8H77.9c-2.6,0-4.8-2.2-4.8-4.8c0-1.1,0.4-2.2,1.1-3
		C77.5,134.6,85.3,123.5,85.3,108.9z"/>
	<path class="st1" d="M108.5,154.5h-15c-1.7,0-3,1.3-3,3s1.3,3,3,3h15c1.7,0,3-1.3,3-3S110.2,154.5,108.5,154.5z"/>
	<path class="st1" d="M74.4,90.6c0.6,0.6,1.4,0.9,2.2,0.9c0.7,0,1.5-0.3,2.1-0.8c1.2-1.1,1.2-3,0.1-4.2l-6.4-6.8
		c-1.1-1.2-3-1.2-4.2-0.1s-1.2,3-0.1,4.2L74.4,90.6z"/>
	<path class="st1" d="M45.2,108.9l21.8,6.8c0.3,0.1,0.6,0.1,0.9,0.1c1.3,0,2.5-0.8,2.9-2.1c0.5-1.6-0.4-3.3-2-3.8L47,103.1
		c-1.6-0.5-3.3,0.4-3.8,2S43.6,108.4,45.2,108.9z"/>
	<path class="st1" d="M134.3,98c0.7,0,1.5-0.3,2.1-0.8l6.8-6.5c1.2-1.1,1.2-3,0.1-4.2c-1.2-1.2-3-1.2-4.2-0.1l-6.8,6.5
		c-1.2,1.1-1.2,3-0.1,4.2C132.8,97.7,133.5,98,134.3,98z"/>
	<path class="st1" d="M133.1,116.5c0.2,1.5,1.5,2.5,3,2.5c0.2,0,0.3,0,0.5,0l24-3.8c1.6-0.3,2.8-1.8,2.5-3.4
		c-0.3-1.6-1.8-2.8-3.4-2.5l-24,3.8C134,113.3,132.9,114.8,133.1,116.5z"/>
</g>
</svg>
