<svg width="173" height="40" xmlns="http://www.w3.org/2000/svg" viewBox="0 0 388.9 89.5">
    <path fill="#fff" d="M76.7 21c-.2-2-1.9-3.5-3.9-3.3-2 .1-3.5 1.9-3.4 3.9v51c0 2.6-.9 4.9-2.8 6.8-1.9 1.9-4.1 2.8-6.6 2.8-2.9 0-5.3-.9-7.2-2.8-1.9-1.8-2.8-4.1-2.9-6.9V51.2v-.1c-.1-2-1.8-3.5-3.8-3.4-1.9.1-3.4 1.6-3.5 3.5v21.3c0 4.6 1.7 8.6 5 12 3.3 3.3 7.3 5 12.1 5 4.7 0 8.7-1.7 12-5 3.3-3.3 5-7.3 5-12v-51-.5"/>
    <path fill="#fff" d="M148.9 13.5c1.2 0 2.3-.4 3.1-1.3.9-.9 1.3-1.9 1.3-3.2 0-1.3-.4-2.3-1.3-3.2-.9-.9-1.9-1.3-3.1-1.3-1.2 0-2.3.4-3.1 1.3-.9.9-1.3 1.9-1.3 3.2 0 1.3.4 2.3 1.3 3.2.9.9 1.9 1.3 3.1 1.3"/>
    <path fill="#fff" d="M73 4.5c-1.2 0-2.3.4-3.1 1.3-.9.9-1.3 2-1.3 3.2 0 1.3.4 2.3 1.3 3.2.9.9 1.9 1.3 3.1 1.3s2.3-.4 3.1-1.3c.9-.9 1.3-1.9 1.3-3.2 0-1.3-.4-2.3-1.3-3.2-.8-.9-1.9-1.3-3.1-1.3"/>
    <path fill="#fff" d="M107.2 54.4c-.1 2.8-1 5.1-2.9 6.9-1.9 1.9-4.2 2.8-6.7 2.8-2.6 0-5-.9-7-2.8s-3-4.2-3-6.9V37.8c0-2.6 1-4.8 2.8-6.7 1.9-1.9 4.1-2.8 6.6-2.8 2.9 0 5.3.9 7.2 2.8 1.9 1.8 2.8 4.1 2.9 6.9v16.4zM97.4 21c-4.7 0-8.7 1.7-12 5-3.3 3.3-5 7.3-5 12v16.6c0 4.7 1.7 8.7 5 12 3.3 3.3 7.3 5 12 5s8.7-1.7 12.1-5c3.3-3.3 5-7.3 5-12V37.9c0-4.7-1.7-8.7-5-12-3.4-3.3-7.4-4.9-12.1-4.9"/>
    <path fill="#fff" d="M286.6 46.2v-8.3c0-2.6.9-4.9 2.8-6.8 1.9-1.9 4.1-2.8 6.6-2.8 2.9 0 5.3.9 7.2 2.8 1.7 1.7 2.7 3.8 2.8 6.4l-19.4 8.7zm26.9-8.3c0-4.9-1.7-8.9-5-12-3.5-3.3-7.5-5-12.1-5-4.7 0-8.7 1.7-12 5-3.3 3.3-5 7.3-5 12v16.6c0 4.7 1.7 8.7 5 12 3.3 3.3 7.3 5 12 5s8.6-1.6 11.7-4.9c3.6-3.8 5.4-7.9 5.4-12.1v-2.8c0-2-1.6-3.6-3.6-3.6-1.8 0-3.3 1.3-3.6 3.1v3.1c-.1 2.8-1 5.1-2.9 6.9-1.9 1.9-4.2 2.8-6.7 2.8-2.9 0-5.3-1-7.2-2.9-1.9-1.9-2.8-4.3-2.8-7.2L313.5 42v-4.1z"/>
    <path fill="#fff" d="M269.3 54.4c-.1 2.8-1 5.1-2.9 6.9-1.9 1.9-4.2 2.8-6.7 2.8-2.6 0-5-.9-7-2.8s-3-4.2-3-6.9V37.8c0-2.6 1-4.8 2.8-6.7 1.9-1.9 4.1-2.8 6.6-2.8 2.9 0 5.3.9 7.2 2.8 1.9 1.8 2.8 4.1 2.9 6.9v16.4zM272.9.7c-2 0-3.6 1.6-3.6 3.5V24c-2.9-2-6.1-3.1-9.9-3.1-4.7 0-8.7 1.7-12 5-3.3 3.3-5 7.3-5 12v16.6c0 4.7 1.7 8.7 5 12 3.3 3.3 7.3 5 12 5s8.7-1.7 12.1-5c3.3-3.3 5-7.3 5-12V4.9v-.6c.1-2-1.6-3.6-3.6-3.6"/>
    <path fill="#fff" d="M232.2 54.4c-.1 2.8-1 5.1-2.9 6.9-1.9 1.9-4.2 2.8-6.7 2.8-2.6 0-5-.9-7-2.8s-3-4.2-3-6.9v-2.7-13.9c0-2.6 1-4.8 2.8-6.7 1.9-1.9 4.1-2.8 6.6-2.8 2.9 0 5.3.9 7.2 2.8 1.9 1.8 2.8 4.1 2.9 6.9v16.4zM222.3 21c-4.7 0-8.7 1.7-12 5-3.3 3.3-5 7.3-5 12v13.8c-.1 3.5-1.3 6.5-3.9 9-2.6 2.6-5.7 3.8-9.3 3.8-3.6 0-6.7-1.3-9.3-3.8-2.3-2.3-3.6-5.1-3.8-8.3V23.3c0-3.6 1.3-6.7 3.8-9.2 2.6-2.5 5.7-3.8 9.3-3.8 3.6 0 6.7 1.3 9.3 3.8 1.1 1 2.2 2.8 3.1 4.4 1 1.7 3.1 2.3 4.8 1.3 1.6-.9 2.2-2.9 1.4-4.5-1-2.2-2.4-4.2-4.2-6-3.9-3.9-8.7-5.9-14.4-5.9-5.6 0-10.4 2-14.4 5.9-4 3.9-6 8.7-6 14.2v28.9c0 4.8-1 6.8-2.8 8.8-1.9 2-4.1 3.1-6.6 3.1-2.9 0-5.3-.9-7.2-2.8-1.9-1.8-2.8-4.1-2.9-6.9V21c-.1-2-1.8-3.5-3.8-3.4-2 .1-3.5 1.8-3.5 3.7V54c0 2.6-.9 5-2.8 7s-4.1 3.1-6.6 3.1c-2.9 0-5.3-.9-7.2-2.8-1.9-1.8-2.8-4.1-2.9-6.9V3.8v-.2c0-2-1.6-3.6-3.6-3.6s-3.6 1.6-3.6 3.6v50.9c0 4.7 1.7 8.7 5 12 3.3 3.3 7.4 5 12.1 5 4.7 0 8.7-1.7 12-5 .5-.5 1-1 1.4-1.6.4.5.9 1.1 1.4 1.6 3.3 3.3 7.4 5 12.1 5s8.7-1.7 12-5c.8-.8 1.5-1.7 2.1-2.6.5.6 1 1.1 1.5 1.7 3.9 3.9 8.8 5.9 14.4 5.9s10.4-2 14.4-5.9c.5-.5 1.1-1.1 1.5-1.7.6.9 1.3 1.8 2.2 2.6 3.3 3.3 7.3 5 12 5s8.7-1.7 12.1-5c3.3-3.3 5-7.3 5-12V37.9c0-4.7-1.7-8.7-5-12-3.3-3.3-7.4-4.9-12.1-4.9"/>
    <path fill="#f7d325" d="M361.2 72.9c-.8 0-1.7-.3-2.3-.9-1.3-1.3-1.3-3.3 0-4.5l22-21.3-22-21.3c-1.3-1.3-1.3-3.3 0-4.5 1.3-1.3 3.4-1.3 4.7 0L388 44c.6.6 1 1.4 1 2.3 0 .9-.3 1.7-1 2.3L363.5 72c-.6.6-1.5.9-2.3.9"/>
    <path fill="#f7d325" d="M27.7 72.9c-.8 0-1.7-.3-2.3-.9L1 48.4c-.6-.6-1-1.4-1-2.3 0-.9.3-1.7 1-2.3l24.4-23.6c1.3-1.3 3.4-1.3 4.7 0 1.3 1.3 1.3 3.3 0 4.5L8 46.1l22 21.3c1.3 1.3 1.3 3.3 0 4.5-.6.7-1.5 1-2.3 1"/>
    <path fill="#f7d325" d="M321.8 81.4c-.4 0-.9-.1-1.3-.3-1.7-.7-2.6-2.6-1.9-4.4l27-63.8c.7-1.7 2.7-2.5 4.5-1.8 1.7.7 2.6 2.6 1.9 4.4l-27 63.8c-.5 1.3-1.8 2.1-3.2 2.1"/>
</svg>
