<svg width="86" height="86" xmlns="http://www.w3.org/2000/svg" viewBox="0 0 866.9 867">
    <style>.st1{fill:#c6c6c6}.st2{fill:#878787}.st4{fill:#b0a6f4}.st5{fill:#d0ccff}.st8{fill:#0d0b26}</style>
    <path d="M644.2 577c0 1.3-.3 2.4-1 3.6l-36.4 58.3c-1.1 1.7-2.9 2.9-4.9 3.1-2 .3-4-.4-5.5-1.8l-58.9-56.3-4.2-4.1 56.1-89.8 14.1-22.6c3.9-6.3 5.6-13.6 4.9-20.9 0-.5-.1-1-.2-1.4 0-.2-.1-.3-.1-.5 0-.3-.1-.7-.2-1 0-.2-.1-.5-.2-.7 0-.1-.1-.3-.1-.4s-.1-.3-.1-.4-.1-.3-.1-.4-.1-.2-.1-.4c-.1-.3-.2-.5-.2-.8-.1-.3-.2-.5-.2-.8-.1-.3-.2-.5-.3-.8s-.2-.5-.3-.8c-.1-.2-.2-.5-.3-.7-.1-.3-.2-.6-.4-.9l-.3-.6c-.2-.3-.3-.6-.5-.9-.1-.2-.1-.3-.2-.5-.2-.3-.4-.7-.6-1-.1-.1-.1-.2-.2-.3-.2-.4-.5-.8-.7-1.1l-.1-.1c-.3-.4-.5-.8-.8-1.2-2.4-3.4-5.6-6.4-9.2-8.7-.1 0-.1-.1-.2-.1l-.6-.3c-.3-.2-.6-.4-.9-.5-.1-.1-.2-.1-.4-.2-8.1-4.4-17.6-5.2-26.5-2.1-7.3 2.5-13.5 7.7-17.6 14.3l-.5.7-62.2 99.5-24.6-24L579 294.5l7.7-13.8 22.6-40.7c.8-1.4 1-3 .6-4.6l-5.6-24.5c-.4-1.7-1.4-3.1-2.9-4.1l-18.1-11.3-12.1-7.5c-1.5-.9-3.2-1.2-4.9-.8l-24.5 5.6c-1.6.4-3 1.3-3.9 2.6l-25.2 36-151.2 216.7-32-11.8 63-100.8c4-6.3 5.6-13.6 4.9-20.9 0-.5-.1-1-.2-1.5 0-.2 0-.3-.1-.5-.1-.4-.1-.7-.2-1-.1-.2-.1-.5-.2-.8 0-.1-.1-.3-.1-.4s-.1-.3-.1-.4c0-.2-.1-.3-.1-.4s-.1-.2-.1-.4c-.1-.3-.1-.5-.2-.8s-.2-.5-.2-.8c-.1-.3-.2-.5-.3-.8-.1-.3-.2-.5-.3-.8-.1-.2-.2-.5-.3-.7-.1-.3-.2-.6-.4-.9l-.3-.6c-.1-.3-.3-.6-.5-.9-.1-.1-.1-.3-.2-.4-.2-.4-.4-.7-.6-1-.1-.1-.1-.2-.2-.3-.2-.4-.5-.8-.7-1.1l-.1-.1c-2.6-4-6-7.4-10.1-10l-.1-.1c-.2-.1-.4-.2-.6-.4-.3-.2-.6-.4-.9-.5-.1-.1-.3-.1-.4-.2-8.1-4.4-17.6-5.2-26.5-2.1-7.3 2.5-13.4 7.7-17.5 14.3l-.5.7-69.5 111.2-82-30.4c-1.9-.7-3.4-2.2-4-4.1-.7-1.9-.4-4 .7-5.7l36.4-58.3c.7-1.1 1.6-1.9 2.8-2.5 82.2-39 351.8-167.1 372.7-179.8 25.1-15.2 36.8-7.7 38-6.9.5.5.9.6 1.5.9 0 0 2.8 1.5 5.4 5.8 3.1 5 6.5 14.5 4.9 31.3-2.2 24.2.9 322.8 1.9 413.8z" fill="#ededed"/>
    <path class="st1" d="M592.2 216.5l4.5 19.4-8.1 14.5-17.6 31.7-21.5-13.4 35.5-56.8 7.2 4.6c0-.1 0-.1 0 0zM595.4 447.9c0 .4.1.8.1 1.1v2c0 .2-.1.5-.1.7 0 .4-.1.8-.2 1.2 0 .2-.1.5-.1.7l-.3 1.2c-.1.3-.2.5-.2.8-.1.4-.2.7-.4 1.1-.1.4-.3.7-.5 1.1-.1.2-.2.5-.3.7-.3.6-.6 1.2-1 1.8l-10.6 17.2-34.1-21.3 9.9-15.8c6-9.6 18.3-13.3 27.5-8.3.1.1.2.1.3.2.4.2.8.5 1.1.7s.5.4.8.6.5.4.8.6.5.5.8.7c.2.2.5.4.7.6.2.3.5.5.8.8.2.2.4.5.6.7.2.3.5.6.7.9.2.2.3.5.5.7l.6.9c.2.3.3.5.5.8s.3.6.5.9c.1.3.3.6.4.9.1.3.3.6.4 1 .1.3.2.6.3 1 .1.3.2.7.3 1s.1.6.2 1c.1.3.1.7.2 1-.3.2-.2.5-.2.8z"/>
    <path class="st2" d="M574.8 488.5s0 .1 0 0l-55.5 88.8-11.7 18.7c-.4.7-1.1 1-1.5 1.1s-1.1.2-1.8-.3L474.1 578c-1.1-.7-1.5-2.2-.8-3.3l67.2-107.5 34.3 21.3zm-24.9 18.7c2.6-4.2 1.3-9.6-2.8-12.2-4.2-2.6-9.7-1.3-12.2 2.8-2.6 4.2-1.3 9.7 2.8 12.2 4.1 2.6 9.6 1.4 12.2-2.8zm-18.8 30.2c2.6-4.2 1.3-9.6-2.8-12.2-4.2-2.6-9.6-1.3-12.2 2.8-2.6 4.2-1.3 9.6 2.8 12.2 4.1 2.6 9.6 1.3 12.2-2.8zm-18.9 30.1c2.6-4.2 1.3-9.7-2.8-12.2-4.2-2.6-9.6-1.3-12.2 2.8-2.6 4.2-1.3 9.6 2.8 12.2s9.6 1.4 12.2-2.8z"/>
    <path class="st1" d="M573.9 205l-35.5 56.8-21.5-13.4 30.3-43.4 19.4-4.5 7.3 4.5z"/>
    <path d="M564.6 293.5l-118.9 214c-.1.1-.1.2-.2.3l-8.8 15.9a8.48 8.48 0 01-5 3.9c-2.1.6-4.4.2-6.3-1l-26.7-16.7 38.9-62.3c1.9-3.1 1-7.2-2.2-9-3.1-1.8-7.1-.6-9 2.4l-38.8 62-26.5-16.6c-1.6-1-2.9-2.5-3.5-4.2-.9-2.5-.5-5.1 1-7.3l10.4-15c0-.1.1-.1.2-.2L509.3 259l27.6 17.2 27.7 17.3zm-54.3 42.3c2.6-4.2 1.3-9.6-2.8-12.2-4.2-2.6-9.7-1.3-12.2 2.8s-1.3 9.6 2.8 12.2c4.1 2.6 9.6 1.3 12.2-2.8zm-18.8 30.1c2.6-4.2 1.3-9.7-2.8-12.2-4.2-2.6-9.6-1.3-12.2 2.8-2.6 4.2-1.3 9.6 2.8 12.2 4.1 2.6 9.6 1.4 12.2-2.8zm-18.9 30.2c2.6-4.2 1.3-9.6-2.8-12.2-4.2-2.6-9.6-1.3-12.2 2.8-2.6 4.2-1.3 9.6 2.8 12.2 4.1 2.6 9.6 1.3 12.2-2.8z" fill="#9d9d9c"/>
    <path class="st4" d="M477.1 544.2L294.3 830.4c-8.2-2.9-16.4-6-24.4-9.4-8.2-3.5-16.2-7.2-24.1-11.1l173.1-272c3.3 2 7 3 10.8 3 1.8 0 3.5-.2 5.2-.7 5.6-1.4 10.3-5.2 13.1-10.2l4.9-8.8 24.2 23z"/>
    <path class="st5" d="M512.4 608.7l-152.1 239c-18-3.2-35.8-7.5-53.3-13l158-247.3c.7.6 1.5 1.2 2.3 1.7l9.5 6-15.2 24.4c-1.8 2.9-1.3 6.7 1.4 8.8 1.2.9 2.6 1.4 4 1.4 2.2 0 4.3-1.1 5.5-3.1l15.4-24.6 9.5 6c2.5 1.5 5.3 2.3 8.1 2.3 1.2 0 2.3-.1 3.5-.4s2.3-.7 3.4-1.2c0-.1 0 0 0 0z"/>
    <path d="M407.8 530.9L234.1 803.8c-15.3-8.2-30-17.4-44.1-27.4l173.8-273 17 10.6-24.8 39.7c-1.9 3-1 7.1 2.1 9 1.1.7 2.3 1 3.4 1 2.2 0 4.3-1.1 5.5-3l24.8-39.7h.1l15.9 9.9z" fill="#8078ea"/>
    <path class="st1" d="M384.4 316c0 .4.1.7.1 1.1v2c0 .2-.1.5-.1.8 0 .4-.1.8-.1 1.2 0 .2-.1.5-.1.7l-.3 1.2c-.1.3-.2.5-.2.8-.1.4-.2.7-.3 1.1-.1.4-.3.7-.5 1.1-.1.2-.2.5-.3.8-.3.6-.6 1.2-1 1.8l-10.7 17.1-34.4-21.4v-.1l9.9-15.8c6-9.6 18.3-13.3 27.5-8.3.1.1.2.1.3.2.4.2.8.5 1.1.7.3.2.5.4.8.6s.5.4.8.6.5.5.8.7c.2.2.4.4.7.6l.8.8c.2.2.4.4.6.7.2.3.5.6.7.9.2.2.3.5.5.7l.6.9c.1.3.3.5.4.8.2.3.3.6.5.9.1.3.3.6.4.9s.3.6.4.9.2.7.3 1c.1.3.2.6.3 1 .1.3.1.7.2 1 .1.4.1.7.2 1 0 .4 0 .7.1 1z"/>
    <path class="st4" d="M353.7 459.1c0 .1 0 .1 0 0l-5.7 8.3c-3.3 4.7-4.5 10.6-3.4 16.2 1.1 5.2 3.9 9.6 8.1 12.7L179.5 768.6h-.1c-13.9-10.5-27.1-22-39.7-34.3l166-260.7c.7-.7 1.3-1.6 1.9-2.5l14.7-23.6 31.4 11.6z"/>
    <path class="st2" d="M295.8 465c-.8.4-1.7.4-2.4 0l-15.1-9.4-15.1-9.4c-.7-.5-1-1.1-1.1-1.5s-.2-1.1.3-1.8l67.2-107.5 34.1 21.3-49.6 79.4-18.3 28.9zm43.1-89.6c2.6-4.2 1.3-9.6-2.8-12.2-4.2-2.6-9.6-1.3-12.2 2.8-2.6 4.2-1.3 9.6 2.8 12.2s9.6 1.3 12.2-2.8zM320 405.5c2.6-4.2 1.3-9.6-2.8-12.2s-9.6-1.3-12.2 2.8c-2.6 4.2-1.3 9.7 2.8 12.2 4.1 2.6 9.6 1.4 12.2-2.8zm-18.8 30.1c2.6-4.2 1.3-9.6-2.8-12.2s-9.6-1.3-12.2 2.8-1.3 9.6 2.8 12.2 9.6 1.4 12.2-2.8z"/>
    <path class="st5" d="M286.4 476c.6.3 1.1.6 1.7.9L130.3 724.8h-.1c-12.6-13.2-24.4-27-35.1-41.5L249.3 441h.1c-.7 3.5-.3 7.1 1.5 10.5 1.3 2.4 3.3 4.4 5.6 5.8l9.2 5.8-15.2 24.4c-1.8 2.9-1.3 6.7 1.4 8.8 1.2.9 2.6 1.4 4 1.4 2.2 0 4.3-1.1 5.5-3.1l15.4-24.6 9.6 6z"/>
    <path d="M821 269.8c21.9 51.8 33 106.9 33 163.7s-11.1 111.8-33 163.7c-21.2 50.1-51.5 95-90.1 133.7-38.6 38.6-83.6 68.9-133.7 90.1-51.8 21.9-106.9 33-163.7 33-19.9 0-39.7-1.4-59.1-4.1v-.1l159.8-251.1 53.2 50.8c3.7 3.5 8.5 5.5 13.6 5.5.8 0 1.7 0 2.5-.2 5.9-.7 11.1-4.1 14.3-9.1l36.4-58.3c2-3.2 3.1-6.9 3-10.6-2-187.1-3.6-393.7-1.9-412.5 1.5-16.3-.8-29.6-6.8-39.3-4-6.5-8.5-9.4-10.4-10.5-1.8-1.3-6.4-4-14-4.8-11.4-1.1-24.3 2.6-38.3 11.1-16.2 9.8-202.6 99-371.6 179.2-3.4 1.6-6.2 4.1-8.2 7.3l-36.4 58.3c-3.2 5-3.9 11.2-1.9 16.8 1.9 5.6 6.2 10.1 11.8 12.1l67.9 25.1L87 671.6h-.1A411.79 411.79 0 0146 597c-21.9-51.8-33-106.9-33-163.7s11.1-111.8 33-163.7c21.2-50.1 51.5-95 90.1-133.7S219.7 67 269.8 45.8C321.7 24.1 376.7 13 433.5 13s111.8 11.1 163.7 33.1c50.1 21.2 95 51.5 133.7 90.1 38.6 38.6 68.9 83.5 90.1 133.6z" fill="#2c07e2"/>
    <path class="st8" d="M832.9 264.8c-21.8-51.6-53.1-98-92.9-137.8-39.8-39.8-86.2-71.1-137.8-92.9C548.8 11.5 492 0 433.5 0S318.2 11.5 264.8 34.1c-51.6 21.8-98 53.1-137.8 92.9s-71.1 86.2-92.9 137.8C11.5 318.2 0 375 0 433.5s11.5 115.3 34.1 168.7c21.8 51.6 53.1 98 92.9 137.8 15.2 15.2 31.5 29.2 48.6 41.9.5.7 1.1 1.4 1.9 1.9.6.3 1.1.6 1.7.8 26.5 19.2 55.1 35.4 85.5 48.3 8.6 3.6 17.3 7 26.1 10.1.5.7 1.1 1.3 1.9 1.8 1.1.7 2.3 1 3.5 1 .7 0 1.4-.1 2-.3C341.6 859.8 387 867 433.4 867c58.5 0 115.3-11.5 168.7-34.1 51.6-21.8 98-53.1 137.8-92.9 39.8-39.8 71.1-86.2 92.9-137.8 22.6-53.5 34.1-110.2 34.1-168.7.1-58.5-11.4-115.3-34-168.7zm-702.6 460c-12.6-13.2-24.4-27-35.1-41.5L249.4 441h.1c-.7 3.5-.3 7.1 1.5 10.5 1.3 2.4 3.3 4.4 5.6 5.8l9.2 5.8-15.2 24.4c-1.8 2.9-1.3 6.7 1.4 8.8 1.2.9 2.6 1.4 4 1.4 2.2 0 4.3-1.1 5.5-3.1l15.4-24.6 9.5 6c.5.3 1.1.6 1.7.9L130.3 724.8zM644.2 577c0 1.3-.3 2.5-1 3.6l-36.4 58.3c-1.1 1.7-2.8 2.9-4.9 3.1-2 .3-4-.4-5.5-1.8l-58.9-56.3-4.2-4.1 56.1-89.8 14.1-22.6c4-6.3 5.6-13.6 4.9-20.9-.1-.5-.1-1-.2-1.4 0-.2-.1-.3-.1-.5-.1-.3-.1-.7-.2-1-.1-.2-.1-.5-.2-.7 0-.1-.1-.3-.1-.4s-.1-.3-.1-.4-.1-.3-.1-.4-.1-.2-.1-.4c-.1-.3-.2-.5-.2-.8-.1-.3-.2-.5-.2-.8-.1-.3-.2-.5-.3-.8s-.2-.5-.3-.8c-.1-.2-.2-.5-.3-.7-.1-.3-.2-.6-.4-.9l-.3-.6c-.2-.3-.3-.6-.5-.9-.1-.2-.2-.3-.2-.5-.2-.3-.4-.7-.6-1-.1-.1-.1-.2-.2-.3-.2-.4-.5-.8-.7-1.1 0 0-.1-.1-.1-.2-.3-.4-.5-.8-.8-1.2-2.4-3.4-5.6-6.4-9.2-8.7-.1 0-.1-.1-.2-.1l-.6-.3c-.3-.2-.6-.4-.9-.5-.1-.1-.2-.1-.4-.2-8.1-4.4-17.6-5.2-26.5-2.1-7.3 2.5-13.5 7.7-17.6 14.3l-.5.7-62.2 99.5h-.1l-24.5-23.9L579 294.5l7.7-13.8 22.6-40.7c.8-1.4 1-3 .7-4.6l-5.7-24.5c-.4-1.7-1.4-3.1-2.9-4.1l-18.1-11.3-12.1-7.5c-1.5-.9-3.2-1.2-4.9-.8l-24.5 5.6c-1.6.4-2.9 1.3-3.9 2.6l-25.2 36-151.2 216.7-32-11.8 63-100.8c4-6.3 5.6-13.6 4.9-20.9-.1-.5-.1-1-.2-1.5 0-.2-.1-.3-.1-.5-.1-.4-.1-.7-.2-1-.1-.2-.1-.5-.2-.8 0-.1 0-.3-.1-.4s-.1-.3-.1-.4c0-.2-.1-.3-.1-.4s-.1-.2-.1-.4c-.1-.3-.1-.5-.2-.8s-.2-.5-.2-.8c-.1-.3-.2-.5-.3-.8-.1-.3-.2-.5-.3-.8-.1-.2-.2-.5-.3-.7-.1-.3-.2-.6-.4-.9l-.3-.6c-.1-.3-.3-.6-.4-.9-.1-.1-.2-.3-.2-.4-.2-.4-.4-.7-.6-1-.1-.1-.1-.2-.2-.3-.2-.4-.5-.8-.7-1.1l-.1-.1c-2.6-4-6-7.4-10.1-10l-.1-.1c-.2-.1-.4-.2-.6-.4-.3-.2-.6-.4-.9-.5-.1-.1-.3-.1-.4-.2-8.1-4.4-17.6-5.2-26.5-2.1-7.3 2.5-13.4 7.7-17.6 14.3l-.4.7L266 412.9l-82.1-30.4c-1.9-.7-3.4-2.2-4-4.1-.7-1.9-.4-4 .7-5.7l36.4-58.3c.7-1.1 1.6-1.9 2.8-2.5 82.2-39 351.9-167.1 372.7-179.8 25.1-15.2 36.9-7.7 38-6.9.5.5.9.6 1.5.9 0 0 2.8 1.5 5.4 5.8 3.1 5 6.5 14.5 4.9 31.3-2.2 24.2.9 322.8 1.9 413.8zm-69.4-88.5s0 .1 0 0l-55.5 88.8-11.7 18.7c-.5.7-1.1 1-1.5 1.1s-1.1.2-1.8-.3L474.1 578c-1.1-.7-1.5-2.2-.8-3.3l67.2-107.5 34.3 21.3zm-27.2-32.4l9.9-15.8c6-9.6 18.3-13.3 27.5-8.3.1.1.2.1.3.2.4.2.8.5 1.1.7s.5.4.8.6.5.4.8.6.5.5.8.7c.2.2.4.4.7.6.2.3.5.5.8.8.2.2.4.5.6.7.2.3.5.6.7.9.2.2.3.5.5.7l.6.9c.2.3.3.5.4.8.2.3.3.6.5.9.1.3.3.6.4.9.1.3.3.6.4 1 .1.3.2.6.3 1 .1.3.2.7.3 1s.1.7.2 1c.1.3.1.7.2 1 .1.3.1.6.1.9 0 .4.1.8.1 1.1v2c0 .2 0 .5-.1.7 0 .4-.1.8-.2 1.2 0 .2-.1.5-.1.7l-.3 1.2c-.1.3-.2.5-.2.8-.1.4-.2.7-.4 1.1-.1.4-.3.7-.5 1.1-.1.2-.2.5-.3.7-.3.6-.6 1.2-1 1.8l-10.7 17.2-34.2-21.4c0 .1-.1 0 0 0zm-112.2-17.6c-3.1-1.8-7.1-.6-9 2.4l-38.8 62-26.5-16.6c-1.6-1-2.9-2.5-3.5-4.2-.9-2.5-.5-5.1 1-7.3l10.4-15 .2-.2 140.1-200.7 27.6 17.2 27.6 17.2-118.8 214.2c-.1.1-.1.2-.2.3l-8.8 15.9c-1.1 1.9-2.9 3.3-5 3.9s-4.4.2-6.3-1l-26.7-16.7 38.9-62.3c2-3.1 1-7.2-2.2-9.1zm103-176.7l-21.5-13.4 30.3-43.4 19.4-4.5 7.2 4.5-35.4 56.8zm46.5-49.9l7.3 4.5 4.5 19.4-8.1 14.5L571 282l-21.5-13.4 35.4-56.7zM363.8 356.7l-49.6 79.5-18.4 28.9c-.7.4-1.7.4-2.4 0l-15.1-9.4-15.1-9.4c-.7-.4-1-1.1-1.1-1.5s-.2-1.1.3-1.8l67.2-107.5 34.2 21.2zm-27.3-32.4l9.9-15.8c6-9.6 18.3-13.3 27.5-8.3.1.1.2.1.3.2.4.2.8.5 1.1.7.3.2.5.4.8.6s.5.4.8.6.5.5.8.7c.2.2.4.4.7.6l.8.8c.2.2.4.4.6.7.2.3.5.6.7.9.2.2.3.5.5.7l.6.9c.1.3.3.5.4.8.2.3.3.6.5 1 .1.3.3.6.4.9s.3.6.4.9.2.7.3 1c.1.3.2.6.3 1 .1.3.1.7.2 1 .1.4.1.7.2 1s.1.6.1.9c0 .4.1.7.1 1.1v2c0 .2-.1.5-.1.8 0 .4-.1.8-.1 1.2 0 .2-.1.5-.2.7l-.3 1.2c-.1.3-.2.5-.2.8-.1.4-.2.7-.3 1.1-.1.4-.3.7-.5 1.1-.1.2-.2.5-.3.8-.3.6-.6 1.2-1 1.8l-10.7 17.1-34.3-21.5zM179.4 768.6c-13.9-10.5-27.1-22-39.7-34.3l166-260.7c.7-.7 1.3-1.6 1.9-2.5l14.7-23.6 31.3 11.6-5.8 8.2c-3.3 4.7-4.5 10.6-3.4 16.2 1.1 5.2 3.9 9.6 8.1 12.7L179.4 768.6c.1 0 .1 0 0 0zm54.7 35.2c-15.3-8.2-30-17.4-44.1-27.4l173.8-273 17 10.6-24.8 39.7c-1.9 3-1 7 2.1 9 1.1.7 2.3 1 3.4 1 2.2 0 4.3-1.1 5.5-3l24.8-39.7h.1l16 10-173.8 272.8zm60.2 26.6s-.1 0 0 0c-8.2-2.9-16.4-6-24.4-9.4-8.2-3.4-16.2-7.2-24.1-11.1l173.1-272c3.3 2 7 3 10.8 3 1.8 0 3.5-.2 5.2-.7 5.6-1.4 10.3-5.2 13.1-10.2l4.9-8.8 24.1 23-182.7 286.2zm66 17.3c-18-3.2-35.8-7.5-53.3-13l158-247.3c.7.6 1.4 1.2 2.3 1.7l9.5 6-15.2 24.4c-1.8 2.9-1.3 6.7 1.4 8.8 1.2.9 2.6 1.4 4 1.4 2.2 0 4.3-1.1 5.5-3.1l15.4-24.6 9.5 6c2.5 1.5 5.3 2.3 8.1 2.3 1.2 0 2.3-.1 3.5-.4 1.2-.3 2.3-.7 3.3-1.2l-152 239zM821 597.2c-21.2 50.1-51.5 95-90.1 133.7s-83.6 68.9-133.7 90.1c-51.8 21.9-106.9 33.1-163.7 33.1-19.9 0-39.7-1.4-59.1-4.1l159.8-251.1 53.2 50.8c3.7 3.5 8.5 5.5 13.6 5.5.8 0 1.7 0 2.5-.2 5.9-.7 11.1-4.1 14.3-9.1l36.4-58.3c2-3.2 3.1-6.9 3-10.6-2-187.1-3.6-393.7-1.9-412.5 1.5-16.3-.8-29.6-6.8-39.3-4-6.5-8.4-9.4-10.4-10.5-1.8-1.3-6.4-4-14-4.8-11.4-1.1-24.3 2.6-38.3 11.1-16.2 9.8-202.6 99-371.6 179.2-3.4 1.6-6.2 4.1-8.2 7.3l-36.4 58.3c-3.2 5-3.9 11.2-1.9 16.8 1.9 5.6 6.2 10.1 11.8 12.1l67.9 25.1L87 671.8a411.79 411.79 0 01-40.9-74.6c-21.9-51.8-33-106.9-33-163.7s11.1-111.8 33-163.7c21.2-50.1 51.5-95 90.1-133.7 38.6-38.6 83.6-68.9 133.7-90.1 51.8-21.9 106.9-33 163.7-33s111.8 11.1 163.7 33c50.1 21.2 95 51.5 133.7 90.1s68.9 83.6 90.1 133.7c21.9 51.8 33 106.9 33 163.7-.1 56.8-11.2 111.8-33.1 163.7z"/>
    <path class="st8" d="M534.8 497.8c-2.6 4.2-1.3 9.7 2.8 12.2 4.2 2.6 9.6 1.3 12.2-2.8 2.6-4.2 1.3-9.6-2.8-12.2-4.1-2.6-9.6-1.4-12.2 2.8zM528.2 525.1c-4.2-2.6-9.6-1.3-12.2 2.8-2.6 4.2-1.3 9.6 2.8 12.2 4.2 2.6 9.7 1.3 12.2-2.8 2.7-4.1 1.4-9.6-2.8-12.2zM509.4 555.3c-4.2-2.6-9.7-1.3-12.2 2.8-2.6 4.2-1.3 9.7 2.8 12.2 4.2 2.6 9.6 1.3 12.2-2.8 2.6-4.2 1.4-9.6-2.8-12.2zM498.1 338.6c4.2 2.6 9.7 1.3 12.2-2.8 2.6-4.2 1.3-9.6-2.8-12.2-4.2-2.6-9.6-1.3-12.2 2.8-2.7 4.1-1.4 9.6 2.8 12.2zM479.2 368.7c4.2 2.6 9.7 1.3 12.2-2.8 2.6-4.2 1.3-9.7-2.8-12.2-4.2-2.6-9.7-1.3-12.2 2.8-2.6 4.2-1.3 9.6 2.8 12.2zM460.4 398.9c4.2 2.6 9.6 1.3 12.2-2.8 2.6-4.2 1.3-9.6-2.8-12.2-4.2-2.6-9.6-1.3-12.2 2.8-2.6 4.1-1.4 9.6 2.8 12.2zM323.8 365.9c-2.6 4.2-1.3 9.6 2.8 12.2 4.2 2.6 9.6 1.3 12.2-2.8 2.6-4.2 1.3-9.6-2.8-12.2-4.1-2.6-9.6-1.3-12.2 2.8zM317.2 393.3c-4.2-2.6-9.6-1.3-12.2 2.8-2.6 4.2-1.3 9.7 2.8 12.2 4.2 2.6 9.7 1.3 12.2-2.8 2.6-4.2 1.4-9.7-2.8-12.2zM298.4 423.4c-4.2-2.6-9.7-1.3-12.2 2.8-2.6 4.2-1.3 9.6 2.8 12.2 4.2 2.6 9.6 1.3 12.2-2.8 2.6-4.1 1.3-9.6-2.8-12.2z"/>
</svg>
