<?xml version="1.0" encoding="utf-8"?>
<!-- Generator: Adobe Illustrator 22.0.1, SVG Export Plug-In . SVG Version: 6.00 Build 0)  -->
<svg version="1.1" id="Calque_1" xmlns="http://www.w3.org/2000/svg" xmlns:xlink="http://www.w3.org/1999/xlink" x="0px" y="0px"
	 viewBox="0 0 1000 1000" style="enable-background:new 0 0 1000 1000;" xml:space="preserve">
<style type="text/css">
	.st0{fill:#EDEDED;}
	.st1{fill:#C6C6C6;}
	.st2{fill:#878787;}
	.st3{fill:#9D9D9C;}
	.st4{fill:#B0A6F4;}
	.st5{fill:#D0CCFF;}
	.st6{fill:#8078EA;}
	.st7{fill:#2C07E2;}
	.st8{fill:#0D0B26;}
</style>
<path class="st0" d="M710.7,643.5c0,1.3-0.3,2.4-1,3.6l-36.4,58.3c-1.1,1.7-2.9,2.9-4.9,3.1c-2,0.3-4-0.4-5.5-1.8L604,650.4
	c0,0,0,0,0,0l-4.2-4.1c0,0,0,0,0,0l56.1-89.8c0,0,0,0,0,0h0l14.1-22.6c3.9-6.3,5.6-13.6,4.9-20.9c0,0,0,0,0,0c0-0.5-0.1-1-0.2-1.4
	c0-0.2-0.1-0.3-0.1-0.5c0-0.3-0.1-0.7-0.2-1c0-0.2-0.1-0.5-0.2-0.7c0-0.1-0.1-0.3-0.1-0.4c0-0.1-0.1-0.3-0.1-0.4
	c0-0.1-0.1-0.3-0.1-0.4c0-0.1-0.1-0.2-0.1-0.4c-0.1-0.3-0.2-0.5-0.2-0.8c-0.1-0.3-0.2-0.5-0.2-0.8c-0.1-0.3-0.2-0.5-0.3-0.8
	c-0.1-0.3-0.2-0.5-0.3-0.8c-0.1-0.2-0.2-0.5-0.3-0.7c-0.1-0.3-0.2-0.6-0.4-0.9c-0.1-0.2-0.2-0.4-0.3-0.6c-0.2-0.3-0.3-0.6-0.5-0.9
	c-0.1-0.2-0.1-0.3-0.2-0.5c-0.2-0.3-0.4-0.7-0.6-1c-0.1-0.1-0.1-0.2-0.2-0.3c-0.2-0.4-0.5-0.8-0.7-1.1c0,0-0.1-0.1-0.1-0.1
	c-0.3-0.4-0.5-0.8-0.8-1.2c-2.4-3.4-5.6-6.4-9.2-8.7c-0.1,0-0.1-0.1-0.2-0.1c0,0,0,0,0,0c-0.2-0.1-0.4-0.2-0.6-0.3
	c-0.3-0.2-0.6-0.4-0.9-0.5c0,0,0,0,0,0c-0.1-0.1-0.2-0.1-0.4-0.2c-8.1-4.4-17.6-5.2-26.5-2.1c-7.3,2.5-13.5,7.7-17.6,14.3l-0.5,0.7
	c0,0,0,0,0,0l-62.2,99.5c0,0,0,0,0,0L526,575.9c0,0,0,0,0,0L645.5,361c0,0,0,0,0,0l7.7-13.8l22.6-40.7c0.8-1.4,1-3,0.6-4.6
	l-5.6-24.5c-0.4-1.7-1.4-3.1-2.9-4.1L649.8,262l-12.1-7.5c-1.5-0.9-3.2-1.2-4.9-0.8l-24.5,5.6c-1.6,0.4-3,1.3-3.9,2.6l-25.2,36
	L428,514.6c0,0,0,0,0,0l-32-11.8c0,0,0,0,0,0l63-100.8c4-6.3,5.6-13.6,4.9-20.9c0,0,0,0,0,0c0-0.5-0.1-1-0.2-1.5
	c0-0.2,0-0.3-0.1-0.5c-0.1-0.4-0.1-0.7-0.2-1c-0.1-0.2-0.1-0.5-0.2-0.8c0-0.1-0.1-0.3-0.1-0.4c0-0.1-0.1-0.3-0.1-0.4
	c0-0.2-0.1-0.3-0.1-0.4c0-0.1-0.1-0.2-0.1-0.4c-0.1-0.3-0.1-0.5-0.2-0.8c-0.1-0.3-0.2-0.5-0.2-0.8c-0.1-0.3-0.2-0.5-0.3-0.8
	c-0.1-0.3-0.2-0.5-0.3-0.8c-0.1-0.2-0.2-0.5-0.3-0.7c-0.1-0.3-0.2-0.6-0.4-0.9c-0.1-0.2-0.2-0.4-0.3-0.6c-0.1-0.3-0.3-0.6-0.5-0.9
	c-0.1-0.1-0.1-0.3-0.2-0.4c-0.2-0.4-0.4-0.7-0.6-1c-0.1-0.1-0.1-0.2-0.2-0.3c-0.2-0.4-0.5-0.8-0.7-1.1c0,0-0.1-0.1-0.1-0.1
	c-2.6-4-6-7.4-10.1-10c0,0-0.1-0.1-0.1-0.1c0,0,0,0,0,0c-0.2-0.1-0.4-0.2-0.6-0.4c-0.3-0.2-0.6-0.4-0.9-0.5c0,0,0,0,0,0
	c-0.1-0.1-0.3-0.1-0.4-0.2c-8.1-4.4-17.6-5.2-26.5-2.1c-7.3,2.5-13.4,7.7-17.5,14.3l-0.5,0.7c0,0,0,0,0,0l-69.5,111.2c0,0,0,0,0,0
	L250.4,449c-1.9-0.7-3.4-2.2-4-4.1c-0.7-1.9-0.4-4,0.7-5.7l36.4-58.3c0.7-1.1,1.6-1.9,2.8-2.5c82.2-39,351.8-167.1,372.7-179.8
	c25.1-15.2,36.8-7.7,38-6.9c0.5,0.5,0.9,0.6,1.5,0.9c0,0,2.8,1.5,5.4,5.8c3.1,5,6.5,14.5,4.9,31.3
	C706.6,253.9,709.7,552.5,710.7,643.5z"/>
<path class="st1" d="M658.7,283l4.5,19.4c0,0,0,0,0,0l-8.1,14.5l-17.6,31.7c0,0,0,0,0,0l-21.5-13.4c0,0,0,0,0,0l35.5-56.8
	c0,0,0,0,0,0L658.7,283C658.7,282.9,658.7,282.9,658.7,283z"/>
<path class="st1" d="M661.9,514.4c0,0.4,0.1,0.8,0.1,1.1c0,0.3,0,0.5,0,0.8c0,0.4,0,0.8,0,1.2c0,0.2-0.1,0.5-0.1,0.7
	c0,0.4-0.1,0.8-0.2,1.2c0,0.2-0.1,0.5-0.1,0.7c-0.1,0.4-0.2,0.8-0.3,1.2c-0.1,0.3-0.2,0.5-0.2,0.8c-0.1,0.4-0.2,0.7-0.4,1.1
	c-0.1,0.4-0.3,0.7-0.5,1.1c-0.1,0.2-0.2,0.5-0.3,0.7c-0.3,0.6-0.6,1.2-1,1.8L648.3,544c0,0,0,0,0,0l-34.1-21.3c0,0,0,0,0,0l9.9-15.8
	c6-9.6,18.3-13.3,27.5-8.3c0.1,0.1,0.2,0.1,0.3,0.2c0.4,0.2,0.8,0.5,1.1,0.7c0.3,0.2,0.5,0.4,0.8,0.6c0.3,0.2,0.5,0.4,0.8,0.6
	c0.3,0.2,0.5,0.5,0.8,0.7c0.2,0.2,0.5,0.4,0.7,0.6c0.2,0.3,0.5,0.5,0.8,0.8c0.2,0.2,0.4,0.5,0.6,0.7c0.2,0.3,0.5,0.6,0.7,0.9
	c0.2,0.2,0.3,0.5,0.5,0.7c0.2,0.3,0.4,0.6,0.6,0.9c0.2,0.3,0.3,0.5,0.5,0.8c0.2,0.3,0.3,0.6,0.5,0.9c0.1,0.3,0.3,0.6,0.4,0.9
	c0.1,0.3,0.3,0.6,0.4,1c0.1,0.3,0.2,0.6,0.3,1c0.1,0.3,0.2,0.7,0.3,1c0.1,0.3,0.1,0.6,0.2,1c0.1,0.3,0.1,0.7,0.2,1
	C661.8,513.8,661.9,514.1,661.9,514.4z"/>
<path class="st2" d="M641.3,555C641.3,555,641.3,555.1,641.3,555l-55.5,88.8c0,0,0,0,0,0l-11.7,18.7c-0.4,0.7-1.1,1-1.5,1.1
	c-0.4,0.1-1.1,0.2-1.8-0.3l-30.2-18.8c-1.1-0.7-1.5-2.2-0.8-3.3l67.2-107.5c0,0,0,0,0,0L641.3,555z M616.4,573.7
	c2.6-4.2,1.3-9.6-2.8-12.2c-4.2-2.6-9.7-1.3-12.2,2.8c-2.6,4.2-1.3,9.7,2.8,12.2C608.3,579.1,613.8,577.9,616.4,573.7z M597.6,603.9
	c2.6-4.2,1.3-9.6-2.8-12.2c-4.2-2.6-9.6-1.3-12.2,2.8c-2.6,4.2-1.3,9.6,2.8,12.2C589.5,609.3,595,608,597.6,603.9z M578.7,634
	c2.6-4.2,1.3-9.7-2.8-12.2c-4.2-2.6-9.6-1.3-12.2,2.8c-2.6,4.2-1.3,9.6,2.8,12.2C570.6,639.4,576.1,638.2,578.7,634z"/>
<path class="st1" d="M640.4,271.5C640.4,271.5,640.4,271.5,640.4,271.5l-35.5,56.8c0,0,0,0,0,0l-21.5-13.4c0,0,0,0,0,0l30.3-43.4
	c0,0,0,0,0,0l19.4-4.5c0,0,0,0,0,0L640.4,271.5z"/>
<path class="st3" d="M631.1,360C631.1,360,631.1,360,631.1,360L512.2,574c-0.1,0.1-0.1,0.2-0.2,0.3l-8.8,15.9
	c-1.1,1.9-2.9,3.3-5,3.9c-2.1,0.6-4.4,0.2-6.3-1l-26.7-16.7c0,0,0,0,0,0l38.9-62.3c1.9-3.1,1-7.2-2.2-9c-3.1-1.8-7.1-0.6-9,2.4
	l-38.8,62c0,0,0,0,0,0l-26.5-16.6c-1.6-1-2.9-2.5-3.5-4.2c-0.9-2.5-0.5-5.1,1-7.3l10.4-15c0-0.1,0.1-0.1,0.2-0.2l140.1-200.7
	c0,0,0,0,0,0l27.6,17.2c0,0,0,0,0,0L631.1,360z M576.8,402.3c2.6-4.2,1.3-9.6-2.8-12.2c-4.2-2.6-9.7-1.3-12.2,2.8s-1.3,9.6,2.8,12.2
	C568.7,407.7,574.2,406.4,576.8,402.3z M558,432.4c2.6-4.2,1.3-9.7-2.8-12.2c-4.2-2.6-9.6-1.3-12.2,2.8c-2.6,4.2-1.3,9.6,2.8,12.2
	C549.9,437.8,555.4,436.6,558,432.4z M539.1,462.6c2.6-4.2,1.3-9.6-2.8-12.2c-4.2-2.6-9.6-1.3-12.2,2.8c-2.6,4.2-1.3,9.6,2.8,12.2
	C531,468,536.5,466.7,539.1,462.6z"/>
<path class="st4" d="M543.6,610.7C543.6,610.7,543.6,610.7,543.6,610.7L360.8,896.9c0,0,0,0,0,0c-8.2-2.9-16.4-6-24.4-9.4
	c-8.2-3.5-16.2-7.2-24.1-11.1c0,0,0,0,0,0l173.1-272c0,0,0,0,0,0c3.3,2,7,3,10.8,3c1.8,0,3.5-0.2,5.2-0.7
	c5.6-1.4,10.3-5.2,13.1-10.2l4.9-8.8c0,0,0,0,0,0L543.6,610.7z"/>
<path class="st5" d="M578.9,675.2l-152.1,239c0,0,0,0,0,0c-18-3.2-35.8-7.5-53.3-13c0,0,0,0,0,0l158-247.3c0,0,0,0,0,0
	c0.7,0.6,1.5,1.2,2.3,1.7l9.5,6c0,0,0,0,0,0L528.1,686c-1.8,2.9-1.3,6.7,1.4,8.8c1.2,0.9,2.6,1.4,4,1.4c2.2,0,4.3-1.1,5.5-3.1
	l15.4-24.6c0,0,0,0,0,0l9.5,6c2.5,1.5,5.3,2.3,8.1,2.3c1.2,0,2.3-0.1,3.5-0.4C576.7,676.1,577.8,675.7,578.9,675.2
	C578.9,675.1,578.9,675.2,578.9,675.2z"/>
<path class="st6" d="M474.3,597.4C474.3,597.4,474.3,597.4,474.3,597.4L300.6,870.3c0,0,0,0,0,0c-15.3-8.2-30-17.4-44.1-27.4
	c0,0,0,0,0,0l173.8-273c0,0,0,0,0,0l17,10.6c0,0,0,0,0,0l-24.8,39.7c-1.9,3-1,7.1,2.1,9c1.1,0.7,2.3,1,3.4,1c2.2,0,4.3-1.1,5.5-3
	l24.8-39.7c0,0,0,0,0.1,0L474.3,597.4z"/>
<path class="st1" d="M450.9,382.5c0,0.4,0.1,0.7,0.1,1.1c0,0.3,0,0.5,0,0.8c0,0.4,0,0.8,0,1.2c0,0.2-0.1,0.5-0.1,0.8
	c0,0.4-0.1,0.8-0.1,1.2c0,0.2-0.1,0.5-0.1,0.7c-0.1,0.4-0.2,0.8-0.3,1.2c-0.1,0.3-0.2,0.5-0.2,0.8c-0.1,0.4-0.2,0.7-0.3,1.1
	c-0.1,0.4-0.3,0.7-0.5,1.1c-0.1,0.2-0.2,0.5-0.3,0.8c-0.3,0.6-0.6,1.2-1,1.8l-10.7,17.1c0,0,0,0,0,0L403,390.8c0,0,0,0,0-0.1
	l9.9-15.8c6-9.6,18.3-13.3,27.5-8.3c0.1,0.1,0.2,0.1,0.3,0.2c0.4,0.2,0.8,0.5,1.1,0.7c0.3,0.2,0.5,0.4,0.8,0.6
	c0.3,0.2,0.5,0.4,0.8,0.6c0.3,0.2,0.5,0.5,0.8,0.7c0.2,0.2,0.4,0.4,0.7,0.6c0.3,0.3,0.5,0.5,0.8,0.8c0.2,0.2,0.4,0.4,0.6,0.7
	c0.2,0.3,0.5,0.6,0.7,0.9c0.2,0.2,0.3,0.5,0.5,0.7c0.2,0.3,0.4,0.6,0.6,0.9c0.1,0.3,0.3,0.5,0.4,0.8c0.2,0.3,0.3,0.6,0.5,0.9
	c0.1,0.3,0.3,0.6,0.4,0.9c0.1,0.3,0.3,0.6,0.4,0.9c0.1,0.3,0.2,0.7,0.3,1c0.1,0.3,0.2,0.6,0.3,1c0.1,0.3,0.1,0.7,0.2,1
	c0.1,0.4,0.1,0.7,0.2,1C450.8,381.9,450.8,382.2,450.9,382.5z"/>
<path class="st4" d="M420.2,525.6C420.2,525.7,420.2,525.7,420.2,525.6l-5.7,8.3c-3.3,4.7-4.5,10.6-3.4,16.2
	c1.1,5.2,3.9,9.6,8.1,12.7c0,0,0,0,0,0L246,835.1c0,0,0,0-0.1,0c-13.9-10.5-27.1-22-39.7-34.3c0,0,0,0,0,0l166-260.7v0
	c0.7-0.7,1.3-1.6,1.9-2.5l14.7-23.6c0,0,0,0,0,0L420.2,525.6z"/>
<path class="st2" d="M362.3,531.5C362.3,531.5,362.3,531.5,362.3,531.5c-0.8,0.4-1.7,0.4-2.4,0l-15.1-9.4h0l-15.1-9.4
	c-0.7-0.5-1-1.1-1.1-1.5c-0.1-0.4-0.2-1.1,0.3-1.8l67.2-107.5c0,0,0,0,0,0l34.1,21.3c0,0,0,0,0,0l-49.6,79.4L362.3,531.5z
	 M405.4,441.9c2.6-4.2,1.3-9.6-2.8-12.2c-4.2-2.6-9.6-1.3-12.2,2.8c-2.6,4.2-1.3,9.6,2.8,12.2S402.8,446,405.4,441.9z M386.5,472
	c2.6-4.2,1.3-9.6-2.8-12.2s-9.6-1.3-12.2,2.8c-2.6,4.2-1.3,9.7,2.8,12.2C378.4,477.4,383.9,476.2,386.5,472z M367.7,502.1
	c2.6-4.2,1.3-9.6-2.8-12.2s-9.6-1.3-12.2,2.8s-1.3,9.6,2.8,12.2S365.1,506.3,367.7,502.1z"/>
<path class="st5" d="M352.9,542.5c0.6,0.3,1.1,0.6,1.7,0.9c0,0,0,0,0,0L196.8,791.3c0,0,0,0-0.1,0c-12.6-13.2-24.4-27-35.1-41.5
	c0,0,0,0,0,0l154.2-242.3c0,0,0.1,0,0.1,0c-0.7,3.5-0.3,7.1,1.5,10.5c1.3,2.4,3.3,4.4,5.6,5.8l9.2,5.8c0,0,0,0,0,0l-15.2,24.4
	c-1.8,2.9-1.3,6.7,1.4,8.8c1.2,0.9,2.6,1.4,4,1.4c2.2,0,4.3-1.1,5.5-3.1l15.4-24.6c0,0,0,0,0,0L352.9,542.5z"/>
<path class="st7" d="M887.5,336.3c21.9,51.8,33,106.9,33,163.7s-11.1,111.8-33,163.7c-21.2,50.1-51.5,95-90.1,133.7
	c-38.6,38.6-83.6,68.9-133.7,90.1c-51.8,21.9-106.9,33-163.7,33c-19.9,0-39.7-1.4-59.1-4.1c0,0,0,0,0-0.1l159.8-251.1c0,0,0,0,0,0
	l53.2,50.8c3.7,3.5,8.5,5.5,13.6,5.5c0.8,0,1.7,0,2.5-0.2c5.9-0.7,11.1-4.1,14.3-9.1l36.4-58.3c2-3.2,3.1-6.9,3-10.6
	c-2-187.1-3.6-393.7-1.9-412.5c1.5-16.3-0.8-29.6-6.8-39.3c-4-6.5-8.5-9.4-10.4-10.5c-1.8-1.3-6.4-4-14-4.8
	c-11.4-1.1-24.3,2.6-38.3,11.1c-16.2,9.8-202.6,99-371.6,179.2c-3.4,1.6-6.2,4.1-8.2,7.3l-36.4,58.3c-3.2,5-3.9,11.2-1.9,16.8
	c1.9,5.6,6.2,10.1,11.8,12.1l67.9,25.1c0,0,0,0,0,0l-160.4,252c0,0,0,0-0.1,0c-16.1-23.3-29.8-48.2-40.9-74.6
	c-21.9-51.8-33-106.9-33-163.7s11.1-111.8,33-163.7c21.2-50.1,51.5-95,90.1-133.7s83.6-68.9,133.7-90.1
	C388.2,90.6,443.2,79.5,500,79.5s111.8,11.1,163.7,33.1c50.1,21.2,95,51.5,133.7,90.1C836,241.3,866.3,286.2,887.5,336.3z"/>
<g>
	<path class="st8" d="M899.4,331.3c-21.8-51.6-53.1-98-92.9-137.8c-39.8-39.8-86.2-71.1-137.8-92.9C615.3,78,558.5,66.5,500,66.5
		S384.7,78,331.3,100.6c-51.6,21.8-98,53.1-137.8,92.9c-39.8,39.8-71.1,86.2-92.9,137.8C78,384.7,66.5,441.5,66.5,500
		c0,58.5,11.5,115.3,34.1,168.7c21.8,51.6,53.1,98,92.9,137.8c15.2,15.2,31.5,29.2,48.6,41.9c0,0,0,0,0,0c0.5,0.7,1.1,1.4,1.9,1.9
		c0.6,0.3,1.1,0.6,1.7,0.8c0,0,0,0,0,0c26.5,19.2,55.1,35.4,85.5,48.3c8.6,3.6,17.3,7,26.1,10.1c0,0,0,0,0,0
		c0.5,0.7,1.1,1.3,1.9,1.8c1.1,0.7,2.3,1,3.5,1c0.7,0,1.4-0.1,2-0.3c0,0,0,0,0,0c43.4,14.3,88.8,21.5,135.2,21.5
		c58.5,0,115.3-11.5,168.7-34.1c51.6-21.8,98-53.1,137.8-92.9c39.8-39.8,71.1-86.2,92.9-137.8c22.6-53.5,34.1-110.2,34.1-168.7
		C933.5,441.5,922,384.7,899.4,331.3z M196.8,791.3c-12.6-13.2-24.4-27-35.1-41.5c0,0,0,0,0,0l154.2-242.3c0,0,0.1,0,0.1,0
		c-0.7,3.5-0.3,7.1,1.5,10.5c1.3,2.4,3.3,4.4,5.6,5.8l9.2,5.8c0,0,0,0,0,0l-15.2,24.4c-1.8,2.9-1.3,6.7,1.4,8.8
		c1.2,0.9,2.6,1.4,4,1.4c2.2,0,4.3-1.1,5.5-3.1l15.4-24.6c0,0,0,0,0,0l9.5,6c0.5,0.3,1.1,0.6,1.7,0.9c0,0,0,0,0,0L196.8,791.3
		C196.8,791.3,196.8,791.3,196.8,791.3z M710.7,643.5c0,1.3-0.3,2.5-1,3.6l-36.4,58.3c-1.1,1.7-2.8,2.9-4.9,3.1
		c-2,0.3-4-0.4-5.5-1.8L604,650.4c0,0,0,0,0,0l-4.2-4.1c0,0,0,0,0,0l56.1-89.8c0,0,0,0,0,0h0l14.1-22.6c4-6.3,5.6-13.6,4.9-20.9
		c0,0,0,0,0,0c-0.1-0.5-0.1-1-0.2-1.4c0-0.2-0.1-0.3-0.1-0.5c-0.1-0.3-0.1-0.7-0.2-1c-0.1-0.2-0.1-0.5-0.2-0.7
		c0-0.1-0.1-0.3-0.1-0.4s-0.1-0.3-0.1-0.4c0-0.1-0.1-0.3-0.1-0.4c0-0.1-0.1-0.2-0.1-0.4c-0.1-0.3-0.2-0.5-0.2-0.8
		c-0.1-0.3-0.2-0.5-0.2-0.8c-0.1-0.3-0.2-0.5-0.3-0.8c-0.1-0.3-0.2-0.5-0.3-0.8c-0.1-0.2-0.2-0.5-0.3-0.7c-0.1-0.3-0.2-0.6-0.4-0.9
		c-0.1-0.2-0.2-0.4-0.3-0.6c-0.2-0.3-0.3-0.6-0.5-0.9c-0.1-0.2-0.2-0.3-0.2-0.5c-0.2-0.3-0.4-0.7-0.6-1c-0.1-0.1-0.1-0.2-0.2-0.3
		c-0.2-0.4-0.5-0.8-0.7-1.1c0,0-0.1-0.1-0.1-0.2c-0.3-0.4-0.5-0.8-0.8-1.2c-2.4-3.4-5.6-6.4-9.2-8.7c-0.1,0-0.1-0.1-0.2-0.1
		c0,0,0,0,0,0c-0.2-0.1-0.4-0.2-0.6-0.3c-0.3-0.2-0.6-0.4-0.9-0.5c0,0,0,0,0,0c-0.1-0.1-0.2-0.1-0.4-0.2c-8.1-4.4-17.6-5.2-26.5-2.1
		c-7.3,2.5-13.5,7.7-17.6,14.3l-0.5,0.7c0,0,0,0,0,0l-62.2,99.5c0,0,0,0-0.1,0L526,575.9c0,0,0,0,0,0L645.5,361c0,0,0,0,0,0
		l7.7-13.8l22.6-40.7c0.8-1.4,1-3,0.7-4.6l-5.7-24.5c-0.4-1.7-1.4-3.1-2.9-4.1L649.8,262l-12.1-7.5c-1.5-0.9-3.2-1.2-4.9-0.8
		l-24.5,5.6c-1.6,0.4-2.9,1.3-3.9,2.6l-25.2,36L428,514.6c0,0,0,0,0,0l-32-11.8c0,0,0,0,0,0l63-100.8c4-6.3,5.6-13.6,4.9-20.9
		c0,0,0,0,0,0c-0.1-0.5-0.1-1-0.2-1.5c0-0.2-0.1-0.3-0.1-0.5c-0.1-0.4-0.1-0.7-0.2-1c-0.1-0.2-0.1-0.5-0.2-0.8c0-0.1,0-0.3-0.1-0.4
		s-0.1-0.3-0.1-0.4c0-0.2-0.1-0.3-0.1-0.4c0-0.1-0.1-0.2-0.1-0.4c-0.1-0.3-0.1-0.5-0.2-0.8c-0.1-0.3-0.2-0.5-0.2-0.8
		c-0.1-0.3-0.2-0.5-0.3-0.8c-0.1-0.3-0.2-0.5-0.3-0.8c-0.1-0.2-0.2-0.5-0.3-0.7c-0.1-0.3-0.2-0.6-0.4-0.9c-0.1-0.2-0.2-0.4-0.3-0.6
		c-0.1-0.3-0.3-0.6-0.4-0.9c-0.1-0.1-0.2-0.3-0.2-0.4c-0.2-0.4-0.4-0.7-0.6-1c-0.1-0.1-0.1-0.2-0.2-0.3c-0.2-0.4-0.5-0.8-0.7-1.1
		c0,0-0.1-0.1-0.1-0.1c-2.6-4-6-7.4-10.1-10c0,0-0.1-0.1-0.1-0.1c0,0,0,0,0,0c-0.2-0.1-0.4-0.2-0.6-0.4c-0.3-0.2-0.6-0.4-0.9-0.5
		c0,0,0,0,0,0c-0.1-0.1-0.3-0.1-0.4-0.2c-8.1-4.4-17.6-5.2-26.5-2.1c-7.3,2.5-13.4,7.7-17.6,14.3l-0.4,0.7c0,0,0,0,0,0l-69.5,111.2
		c0,0,0,0,0,0L250.4,449c-1.9-0.7-3.4-2.2-4-4.1c-0.7-1.9-0.4-4,0.7-5.7l36.4-58.3c0.7-1.1,1.6-1.9,2.8-2.5
		c82.2-39,351.9-167.1,372.7-179.8c25.1-15.2,36.9-7.7,38-6.9c0.5,0.5,0.9,0.6,1.5,0.9c0,0,2.8,1.5,5.4,5.8c3.1,5,6.5,14.5,4.9,31.3
		C706.6,253.9,709.7,552.5,710.7,643.5z M641.3,555C641.3,555,641.3,555.1,641.3,555l-55.5,88.8c0,0,0,0,0,0l-11.7,18.7
		c-0.5,0.7-1.1,1-1.5,1.1c-0.4,0.1-1.1,0.2-1.8-0.3l-30.2-18.8c-1.1-0.7-1.5-2.2-0.8-3.3l67.2-107.5c0,0,0,0,0,0L641.3,555z
		 M614.1,522.6l9.9-15.8c6-9.6,18.3-13.3,27.5-8.3c0.1,0.1,0.2,0.1,0.3,0.2c0.4,0.2,0.8,0.5,1.1,0.7c0.3,0.2,0.5,0.4,0.8,0.6
		c0.3,0.2,0.5,0.4,0.8,0.6c0.3,0.2,0.5,0.5,0.8,0.7c0.2,0.2,0.4,0.4,0.7,0.6c0.2,0.3,0.5,0.5,0.8,0.8c0.2,0.2,0.4,0.5,0.6,0.7
		c0.2,0.3,0.5,0.6,0.7,0.9c0.2,0.2,0.3,0.5,0.5,0.7c0.2,0.3,0.4,0.6,0.6,0.9c0.2,0.3,0.3,0.5,0.4,0.8c0.2,0.3,0.3,0.6,0.5,0.9
		c0.1,0.3,0.3,0.6,0.4,0.9c0.1,0.3,0.3,0.6,0.4,1c0.1,0.3,0.2,0.6,0.3,1c0.1,0.3,0.2,0.7,0.3,1c0.1,0.3,0.1,0.7,0.2,1
		c0.1,0.3,0.1,0.7,0.2,1c0.1,0.3,0.1,0.6,0.1,0.9c0,0.4,0.1,0.8,0.1,1.1c0,0.3,0,0.5,0,0.8c0,0.4,0,0.8,0,1.2c0,0.2,0,0.5-0.1,0.7
		c0,0.4-0.1,0.8-0.2,1.2c0,0.2-0.1,0.5-0.1,0.7c-0.1,0.4-0.2,0.8-0.3,1.2c-0.1,0.3-0.2,0.5-0.2,0.8c-0.1,0.4-0.2,0.7-0.4,1.1
		c-0.1,0.4-0.3,0.7-0.5,1.1c-0.1,0.2-0.2,0.5-0.3,0.7c-0.3,0.6-0.6,1.2-1,1.8L648.3,544c0,0,0,0,0,0L614.1,522.6
		C614.1,522.7,614,522.6,614.1,522.6z M501.9,505c-3.1-1.8-7.1-0.6-9,2.4l-38.8,62c0,0,0,0,0,0l-26.5-16.6c-1.6-1-2.9-2.5-3.5-4.2
		c-0.9-2.5-0.5-5.1,1-7.3l10.4-15c0.1-0.1,0.1-0.1,0.2-0.2l140.1-200.7c0,0,0,0,0,0l27.6,17.2c0,0,0,0,0,0l27.6,17.2c0,0,0,0,0,0
		L512.2,574c-0.1,0.1-0.1,0.2-0.2,0.3l-8.8,15.9c-1.1,1.9-2.9,3.3-5,3.9s-4.4,0.2-6.3-1l-26.7-16.7c0,0,0,0,0,0l38.9-62.3
		C506.1,511,505.1,506.9,501.9,505z M604.9,328.3C604.9,328.3,604.9,328.3,604.9,328.3l-21.5-13.4c0,0,0,0,0,0l30.3-43.4
		c0,0,0,0,0,0l19.4-4.5c0,0,0,0,0,0l7.2,4.5c0,0,0,0,0,0L604.9,328.3z M651.4,278.4C651.4,278.4,651.4,278.4,651.4,278.4l7.3,4.5
		c0,0,0,0,0,0l4.5,19.4c0,0,0,0,0,0l-8.1,14.5l-17.6,31.7c0,0,0,0,0,0l-21.5-13.4c0,0,0,0,0,0L651.4,278.4z M430.3,423.2
		C430.3,423.2,430.3,423.2,430.3,423.2l-49.6,79.5l-18.4,28.9c0,0,0,0,0,0c-0.7,0.4-1.7,0.4-2.4,0l-15.1-9.4h0l-15.1-9.4
		c-0.7-0.4-1-1.1-1.1-1.5c-0.1-0.4-0.2-1.1,0.3-1.8l67.2-107.5c0,0,0,0,0,0L430.3,423.2z M403,390.8l9.9-15.8
		c6-9.6,18.3-13.3,27.5-8.3c0.1,0.1,0.2,0.1,0.3,0.2c0.4,0.2,0.8,0.5,1.1,0.7c0.3,0.2,0.5,0.4,0.8,0.6c0.3,0.2,0.5,0.4,0.8,0.6
		c0.3,0.2,0.5,0.5,0.8,0.7c0.2,0.2,0.4,0.4,0.7,0.6c0.3,0.3,0.5,0.5,0.8,0.8c0.2,0.2,0.4,0.4,0.6,0.7c0.2,0.3,0.5,0.6,0.7,0.9
		c0.2,0.2,0.3,0.5,0.5,0.7c0.2,0.3,0.4,0.6,0.6,0.9c0.1,0.3,0.3,0.5,0.4,0.8c0.2,0.3,0.3,0.6,0.5,1c0.1,0.3,0.3,0.6,0.4,0.9
		c0.1,0.3,0.3,0.6,0.4,0.9c0.1,0.3,0.2,0.7,0.3,1c0.1,0.3,0.2,0.6,0.3,1c0.1,0.3,0.1,0.7,0.2,1c0.1,0.4,0.1,0.7,0.2,1
		c0.1,0.3,0.1,0.6,0.1,0.9c0,0.4,0.1,0.7,0.1,1.1c0,0.3,0,0.5,0,0.8c0,0.4,0,0.8,0,1.2c0,0.2-0.1,0.5-0.1,0.8c0,0.4-0.1,0.8-0.1,1.2
		c0,0.2-0.1,0.5-0.2,0.7c-0.1,0.4-0.2,0.8-0.3,1.2c-0.1,0.3-0.2,0.5-0.2,0.8c-0.1,0.4-0.2,0.7-0.3,1.1c-0.1,0.4-0.3,0.7-0.5,1.1
		c-0.1,0.2-0.2,0.5-0.3,0.8c-0.3,0.6-0.6,1.2-1,1.8l-10.7,17.1c0,0,0,0,0,0L403,390.8C403,390.8,403,390.8,403,390.8z M245.9,835.1
		c-13.9-10.5-27.1-22-39.7-34.3c0,0,0,0,0,0l166-260.7v0c0.7-0.7,1.3-1.6,1.9-2.5l14.7-23.6c0,0,0,0,0,0l31.3,11.6c0,0,0,0,0,0
		l-5.8,8.2c-3.3,4.7-4.5,10.6-3.4,16.2c1.1,5.2,3.9,9.6,8.1,12.7c0,0,0,0,0,0L245.9,835.1C246,835.1,246,835.1,245.9,835.1z
		 M300.6,870.3c-15.3-8.2-30-17.4-44.1-27.4c0,0,0,0,0,0l173.8-273c0,0,0,0,0,0l17,10.6c0,0,0,0,0,0l-24.8,39.7c-1.9,3-1,7,2.1,9
		c1.1,0.7,2.3,1,3.4,1c2.2,0,4.3-1.1,5.5-3l24.8-39.7c0,0,0,0,0.1,0l16,10c0,0,0,0,0,0L300.6,870.3
		C300.6,870.3,300.6,870.3,300.6,870.3z M360.8,896.9C360.8,896.9,360.7,896.9,360.8,896.9c-8.2-2.9-16.4-6-24.4-9.4
		c-8.2-3.4-16.2-7.2-24.1-11.1c0,0,0,0,0,0l173.1-272c0,0,0,0,0,0c3.3,2,7,3,10.8,3c1.8,0,3.5-0.2,5.2-0.7
		c5.6-1.4,10.3-5.2,13.1-10.2l4.9-8.8c0,0,0,0,0,0l24.1,23c0,0,0,0,0,0L360.8,896.9z M426.8,914.2c-18-3.2-35.8-7.5-53.3-13
		c0,0,0,0,0,0l158-247.3c0,0,0,0,0,0c0.7,0.6,1.4,1.2,2.3,1.7l9.5,6c0,0,0,0,0,0L528.1,686c-1.8,2.9-1.3,6.7,1.4,8.8
		c1.2,0.9,2.6,1.4,4,1.4c2.2,0,4.3-1.1,5.5-3.1l15.4-24.6c0,0,0,0,0,0l9.5,6c2.5,1.5,5.3,2.3,8.1,2.3c1.2,0,2.3-0.1,3.5-0.4
		c1.2-0.3,2.3-0.7,3.3-1.2c0,0,0,0,0,0L426.8,914.2C426.8,914.2,426.8,914.2,426.8,914.2z M887.5,663.7
		c-21.2,50.1-51.5,95-90.1,133.7s-83.6,68.9-133.7,90.1c-51.8,21.9-106.9,33.1-163.7,33.1c-19.9,0-39.7-1.4-59.1-4.1c0,0,0,0,0,0
		l159.8-251.1c0,0,0,0,0,0l53.2,50.8c3.7,3.5,8.5,5.5,13.6,5.5c0.8,0,1.7,0,2.5-0.2c5.9-0.7,11.1-4.1,14.3-9.1l36.4-58.3
		c2-3.2,3.1-6.9,3-10.6c-2-187.1-3.6-393.7-1.9-412.5c1.5-16.3-0.8-29.6-6.8-39.3c-4-6.5-8.4-9.4-10.4-10.5c-1.8-1.3-6.4-4-14-4.8
		c-11.4-1.1-24.3,2.6-38.3,11.1c-16.2,9.8-202.6,99-371.6,179.2c-3.4,1.6-6.2,4.1-8.2,7.3l-36.4,58.3c-3.2,5-3.9,11.2-1.9,16.8
		c1.9,5.6,6.2,10.1,11.8,12.1l67.9,25.1c0,0,0,0,0,0l-160.4,252c0,0,0,0,0,0c-16.1-23.3-29.8-48.2-40.9-74.6
		c-21.9-51.8-33-106.9-33-163.7c0-56.8,11.1-111.8,33-163.7c21.2-50.1,51.5-95,90.1-133.7c38.6-38.6,83.6-68.9,133.7-90.1
		c51.8-21.9,106.9-33,163.7-33s111.8,11.1,163.7,33c50.1,21.2,95,51.5,133.7,90.1s68.9,83.6,90.1,133.7c21.9,51.8,33,106.9,33,163.7
		C920.5,556.8,909.4,611.8,887.5,663.7z"/>
	<path class="st8" d="M601.3,564.3c-2.6,4.2-1.3,9.7,2.8,12.2c4.2,2.6,9.6,1.3,12.2-2.8c2.6-4.2,1.3-9.6-2.8-12.2
		C609.4,558.9,603.9,560.1,601.3,564.3z"/>
	<path class="st8" d="M594.7,591.6c-4.2-2.6-9.6-1.3-12.2,2.8c-2.6,4.2-1.3,9.6,2.8,12.2c4.2,2.6,9.7,1.3,12.2-2.8
		C600.2,599.7,598.9,594.2,594.7,591.6z"/>
	<path class="st8" d="M575.9,621.8c-4.2-2.6-9.7-1.3-12.2,2.8c-2.6,4.2-1.3,9.7,2.8,12.2c4.2,2.6,9.6,1.3,12.2-2.8
		C581.3,629.8,580.1,624.4,575.9,621.8z"/>
	<path class="st8" d="M564.6,405.1c4.2,2.6,9.7,1.3,12.2-2.8c2.6-4.2,1.3-9.6-2.8-12.2c-4.2-2.6-9.6-1.3-12.2,2.8
		C559.1,397,560.4,402.5,564.6,405.1z"/>
	<path class="st8" d="M545.7,435.2c4.2,2.6,9.7,1.3,12.2-2.8c2.6-4.2,1.3-9.7-2.8-12.2c-4.2-2.6-9.7-1.3-12.2,2.8
		C540.3,427.2,541.6,432.6,545.7,435.2z"/>
	<path class="st8" d="M526.9,465.4c4.2,2.6,9.6,1.3,12.2-2.8c2.6-4.2,1.3-9.6-2.8-12.2c-4.2-2.6-9.6-1.3-12.2,2.8
		C521.5,457.3,522.7,462.8,526.9,465.4z"/>
	<path class="st8" d="M390.3,432.4c-2.6,4.2-1.3,9.6,2.8,12.2c4.2,2.6,9.6,1.3,12.2-2.8c2.6-4.2,1.3-9.6-2.8-12.2
		C398.4,427,392.9,428.3,390.3,432.4z"/>
	<path class="st8" d="M383.7,459.8c-4.2-2.6-9.6-1.3-12.2,2.8c-2.6,4.2-1.3,9.7,2.8,12.2c4.2,2.6,9.7,1.3,12.2-2.8
		C389.1,467.8,387.9,462.3,383.7,459.8z"/>
	<path class="st8" d="M364.9,489.9c-4.2-2.6-9.7-1.3-12.2,2.8c-2.6,4.2-1.3,9.6,2.8,12.2c4.2,2.6,9.6,1.3,12.2-2.8
		C370.3,498,369,492.5,364.9,489.9z"/>
</g>
</svg>
