<?xml version="1.0" encoding="UTF-8"?>
<svg width="868px" height="868px" viewBox="0 0 868 868" version="1.1" xmlns="http://www.w3.org/2000/svg" xmlns:xlink="http://www.w3.org/1999/xlink">
    <!-- Generator: Sketch 48.2 (47327) - http://www.bohemiancoding.com/sketch -->
    <title>Untitled</title>
    <desc>Created with Sketch.</desc>
    <defs></defs>
    <g id="Page-1" stroke="none" stroke-width="1" fill="none" fill-rule="evenodd">
        <g id="Logo_Starflett" fill-rule="nonzero">
            <path d="M644.7,577.5 C644.7,578.8 644.4,579.9 643.7,581.1 L607.3,639.4 C606.2,641.1 604.4,642.3 602.4,642.5 C600.4,642.8 598.4,642.1 596.9,640.7 L538,584.4 C538,584.4 538,584.4 538,584.4 L533.8,580.3 C533.8,580.3 533.8,580.3 533.8,580.3 L589.9,490.5 C589.9,490.5 589.9,490.5 589.9,490.5 L604,467.9 C607.9,461.6 609.6,454.3 608.9,447 C608.9,447 608.9,447 608.9,447 C608.9,446.5 608.8,446 608.7,445.6 C608.7,445.4 608.6,445.3 608.6,445.1 C608.6,444.8 608.5,444.4 608.4,444.1 C608.4,443.9 608.3,443.6 608.2,443.4 C608.2,443.3 608.1,443.1 608.1,443 C608.1,442.9 608,442.7 608,442.6 C608,442.5 607.9,442.3 607.9,442.2 C607.9,442.1 607.8,442 607.8,441.8 C607.7,441.5 607.6,441.3 607.6,441 C607.5,440.7 607.4,440.5 607.4,440.2 C607.3,439.9 607.2,439.7 607.1,439.4 C607,439.1 606.9,438.9 606.8,438.6 C606.7,438.4 606.6,438.1 606.5,437.9 C606.4,437.6 606.3,437.3 606.1,437 C606,436.8 605.9,436.6 605.8,436.4 C605.6,436.1 605.5,435.8 605.3,435.5 C605.2,435.3 605.2,435.2 605.1,435 C604.9,434.7 604.7,434.3 604.5,434 C604.4,433.9 604.4,433.8 604.3,433.7 C604.1,433.3 603.8,432.9 603.6,432.6 C603.6,432.6 603.5,432.5 603.5,432.5 C603.2,432.1 603,431.7 602.7,431.3 C600.3,427.9 597.1,424.9 593.5,422.6 C593.4,422.6 593.4,422.5 593.3,422.5 C593.3,422.5 593.3,422.5 593.3,422.5 C593.1,422.4 592.9,422.3 592.7,422.2 C592.4,422 592.1,421.8 591.8,421.7 C591.8,421.7 591.8,421.7 591.8,421.7 C591.7,421.6 591.6,421.6 591.4,421.5 C583.3,417.1 573.8,416.3 564.9,419.4 C557.6,421.9 551.4,427.1 547.3,433.7 L546.8,434.4 C546.8,434.4 546.8,434.4 546.8,434.4 L484.6,533.9 C484.6,533.9 484.6,533.9 484.6,533.9 L460,509.9 C460,509.9 460,509.9 460,509.9 L579.5,295 C579.5,295 579.5,295 579.5,295 L587.2,281.2 L609.8,240.5 C610.6,239.1 610.8,237.5 610.4,235.9 L604.8,211.4 C604.4,209.7 603.4,208.3 601.9,207.3 L583.8,196 L571.7,188.5 C570.2,187.6 568.5,187.3 566.8,187.7 L542.3,193.3 C540.7,193.7 539.3,194.6 538.4,195.9 L513.2,231.9 L362,448.6 C362,448.6 362,448.6 362,448.6 L330,436.8 C330,436.8 330,436.8 330,436.8 L393,336 C397,329.7 398.6,322.4 397.9,315.1 C397.9,315.1 397.9,315.1 397.9,315.1 C397.9,314.6 397.8,314.1 397.7,313.6 C397.7,313.4 397.7,313.3 397.6,313.1 C397.5,312.7 397.5,312.4 397.4,312.1 C397.3,311.9 397.3,311.6 397.2,311.3 C397.2,311.2 397.1,311 397.1,310.9 C397.1,310.8 397,310.6 397,310.5 C397,310.3 396.9,310.2 396.9,310.1 C396.9,310 396.8,309.9 396.8,309.7 C396.7,309.4 396.7,309.2 396.6,308.9 C396.5,308.6 396.4,308.4 396.4,308.1 C396.3,307.8 396.2,307.6 396.1,307.3 C396,307 395.9,306.8 395.8,306.5 C395.7,306.3 395.6,306 395.5,305.8 C395.4,305.5 395.3,305.2 395.1,304.9 C395,304.7 394.9,304.5 394.8,304.3 C394.7,304 394.5,303.7 394.3,303.4 C394.2,303.3 394.2,303.1 394.1,303 C393.9,302.6 393.7,302.3 393.5,302 C393.4,301.9 393.4,301.8 393.3,301.7 C393.1,301.3 392.8,300.9 392.6,300.6 C392.6,300.6 392.5,300.5 392.5,300.5 C389.9,296.5 386.5,293.1 382.4,290.5 C382.4,290.5 382.3,290.4 382.3,290.4 C382.3,290.4 382.3,290.4 382.3,290.4 C382.1,290.3 381.9,290.2 381.7,290 C381.4,289.8 381.1,289.6 380.8,289.5 C380.8,289.5 380.8,289.5 380.8,289.5 C380.7,289.4 380.5,289.4 380.4,289.3 C372.3,284.9 362.8,284.1 353.9,287.2 C346.6,289.7 340.5,294.9 336.4,301.5 L335.9,302.2 C335.9,302.2 335.9,302.2 335.9,302.2 L266.4,413.4 C266.4,413.4 266.4,413.4 266.4,413.4 L184.4,383 C182.5,382.3 181,380.8 180.4,378.9 C179.7,377 180,374.9 181.1,373.2 L217.5,314.9 C218.2,313.8 219.1,313 220.3,312.4 C302.5,273.4 572.1,145.3 593,132.6 C618.1,117.4 629.8,124.9 631,125.7 C631.5,126.2 631.9,126.3 632.5,126.6 C632.5,126.6 635.3,128.1 637.9,132.4 C641,137.4 644.4,146.9 642.8,163.7 C640.6,187.9 643.7,486.5 644.7,577.5 Z" id="Shape" fill-opacity="0" fill="#FFFFFF"></path>
            <path d="M592.7,217 L597.2,236.4 C597.2,236.4 597.2,236.4 597.2,236.4 L589.1,250.9 L571.5,282.6 C571.5,282.6 571.5,282.6 571.5,282.6 L550,269.2 C550,269.2 550,269.2 550,269.2 L585.5,212.4 C585.5,212.4 585.5,212.4 585.5,212.4 L592.7,217 C592.7,216.9 592.7,216.9 592.7,217 Z" id="Shape" fill-opacity="0" fill="#FFFFFF"></path>
            <path d="M595.9,448.4 C595.9,448.8 596,449.2 596,449.5 C596,449.8 596,450 596,450.3 C596,450.7 596,451.1 596,451.5 C596,451.7 595.9,452 595.9,452.2 C595.9,452.6 595.8,453 595.7,453.4 C595.7,453.6 595.6,453.9 595.6,454.1 C595.5,454.5 595.4,454.9 595.3,455.3 C595.2,455.6 595.1,455.8 595.1,456.1 C595,456.5 594.9,456.8 594.7,457.2 C594.6,457.6 594.4,457.9 594.2,458.3 C594.1,458.5 594,458.8 593.9,459 C593.6,459.6 593.3,460.2 592.9,460.8 L582.3,478 C582.3,478 582.3,478 582.3,478 L548.2,456.7 C548.2,456.7 548.2,456.7 548.2,456.7 L558.1,440.9 C564.1,431.3 576.4,427.6 585.6,432.6 C585.7,432.7 585.8,432.7 585.9,432.8 C586.3,433 586.7,433.3 587,433.5 C587.3,433.7 587.5,433.9 587.8,434.1 C588.1,434.3 588.3,434.5 588.6,434.7 C588.9,434.9 589.1,435.2 589.4,435.4 C589.6,435.6 589.9,435.8 590.1,436 C590.3,436.3 590.6,436.5 590.9,436.8 C591.1,437 591.3,437.3 591.5,437.5 C591.7,437.8 592,438.1 592.2,438.4 C592.4,438.6 592.5,438.9 592.7,439.1 C592.9,439.4 593.1,439.7 593.3,440 C593.5,440.3 593.6,440.5 593.8,440.8 C594,441.1 594.1,441.4 594.3,441.7 C594.4,442 594.6,442.3 594.7,442.6 C594.8,442.9 595,443.2 595.1,443.6 C595.2,443.9 595.3,444.2 595.4,444.6 C595.5,444.9 595.6,445.3 595.7,445.6 C595.8,445.9 595.8,446.2 595.9,446.6 C596,446.9 596,447.3 596.1,447.6 C595.8,447.8 595.9,448.1 595.9,448.4 Z" id="Shape" fill-opacity="0" fill="#FFFFFF"></path>
            <path d="M575.3,489 C575.3,489 575.3,489.1 575.3,489 L519.8,577.8 C519.8,577.8 519.8,577.8 519.8,577.8 L508.1,596.5 C507.7,597.2 507,597.5 506.6,597.6 C506.2,597.7 505.5,597.8 504.8,597.3 L474.6,578.5 C473.5,577.8 473.1,576.3 473.8,575.2 L541,467.7 C541,467.7 541,467.7 541,467.7 L575.3,489 Z M550.4,507.7 C553,503.5 551.7,498.1 547.6,495.5 C543.4,492.9 537.9,494.2 535.4,498.3 C532.8,502.5 534.1,508 538.2,510.5 C542.3,513.1 547.8,511.9 550.4,507.7 Z M531.6,537.9 C534.2,533.7 532.9,528.3 528.8,525.7 C524.6,523.1 519.2,524.4 516.6,528.5 C514,532.7 515.3,538.1 519.4,540.7 C523.5,543.3 529,542 531.6,537.9 Z M512.7,568 C515.3,563.8 514,558.3 509.9,555.8 C505.7,553.2 500.3,554.5 497.7,558.6 C495.1,562.8 496.4,568.2 500.5,570.8 C504.6,573.4 510.1,572.2 512.7,568 Z" id="Shape" fill-opacity="0" fill="#FFFFFF"></path>
            <path d="M574.4,205.5 C574.4,205.5 574.4,205.5 574.4,205.5 L538.9,262.3 C538.9,262.3 538.9,262.3 538.9,262.3 L517.4,248.9 C517.4,248.9 517.4,248.9 517.4,248.9 L547.7,205.5 C547.7,205.5 547.7,205.5 547.7,205.5 L567.1,201 C567.1,201 567.1,201 567.1,201 L574.4,205.5 Z" id="Shape" fill-opacity="0" fill="#FFFFFF"></path>
            <path d="M565.1,294 C565.1,294 565.1,294 565.1,294 L446.2,508 C446.1,508.1 446.1,508.2 446,508.3 L437.2,524.2 C436.1,526.1 434.3,527.5 432.2,528.1 C430.1,528.7 427.8,528.3 425.9,527.1 L399.2,510.4 C399.2,510.4 399.2,510.4 399.2,510.4 L438.1,448.1 C440,445 439.1,440.9 435.9,439.1 C432.8,437.3 428.8,438.5 426.9,441.5 L388.1,503.5 C388.1,503.5 388.1,503.5 388.1,503.5 L361.6,486.9 C360,485.9 358.7,484.4 358.1,482.7 C357.2,480.2 357.6,477.6 359.1,475.4 L369.5,460.4 C369.5,460.3 369.6,460.3 369.7,460.2 L509.8,259.5 C509.8,259.5 509.8,259.5 509.8,259.5 L537.4,276.7 C537.4,276.7 537.4,276.7 537.4,276.7 L565.1,294 Z M510.8,336.3 C513.4,332.1 512.1,326.7 508,324.1 C503.8,321.5 498.3,322.8 495.8,326.9 C493.3,331 494.5,336.5 498.6,339.1 C502.7,341.7 508.2,340.4 510.8,336.3 Z M492,366.4 C494.6,362.2 493.3,356.7 489.2,354.2 C485,351.6 479.6,352.9 477,357 C474.4,361.2 475.7,366.6 479.8,369.2 C483.9,371.8 489.4,370.6 492,366.4 Z M473.1,396.6 C475.7,392.4 474.4,387 470.3,384.4 C466.1,381.8 460.7,383.1 458.1,387.2 C455.5,391.4 456.8,396.8 460.9,399.4 C465,402 470.5,400.7 473.1,396.6 Z" id="Shape" fill-opacity="0" fill="#FFFFFF"></path>
            <path d="M477.6,544.7 C477.6,544.7 477.6,544.7 477.6,544.7 L294.8,830.9 C294.8,830.9 294.8,830.9 294.8,830.9 C286.6,828 278.4,824.9 270.4,821.5 C262.2,818 254.2,814.3 246.3,810.4 C246.3,810.4 246.3,810.4 246.3,810.4 L419.4,538.4 C419.4,538.4 419.4,538.4 419.4,538.4 C422.7,540.4 426.4,541.4 430.2,541.4 C432,541.4 433.7,541.2 435.4,540.7 C441,539.3 445.7,535.5 448.5,530.5 L453.4,521.7 C453.4,521.7 453.4,521.7 453.4,521.7 L477.6,544.7 Z" id="Shape" fill="#B0A6F4"></path>
            <path d="M512.9,609.2 L360.8,848.2 C360.8,848.2 360.8,848.2 360.8,848.2 C342.8,845 325,840.7 307.5,835.2 C307.5,835.2 307.5,835.2 307.5,835.2 L465.5,587.9 C465.5,587.9 465.5,587.9 465.5,587.9 C466.2,588.5 467,589.1 467.8,589.6 L477.3,595.6 C477.3,595.6 477.3,595.6 477.3,595.6 L462.1,620 C460.3,622.9 460.8,626.7 463.5,628.8 C464.7,629.7 466.1,630.2 467.5,630.2 C469.7,630.2 471.8,629.1 473,627.1 L488.4,602.5 C488.4,602.5 488.4,602.5 488.4,602.5 L497.9,608.5 C500.4,610 503.2,610.8 506,610.8 C507.2,610.8 508.3,610.7 509.5,610.4 C510.7,610.1 511.8,609.7 512.9,609.2 C512.9,609.1 512.9,609.2 512.9,609.2 Z" id="Shape" fill="#D0CCFF"></path>
            <path d="M408.3,531.4 C408.3,531.4 408.3,531.4 408.3,531.4 L234.6,804.3 C234.6,804.3 234.6,804.3 234.6,804.3 C219.3,796.1 204.6,786.9 190.5,776.9 C190.5,776.9 190.5,776.9 190.5,776.9 L364.3,503.9 C364.3,503.9 364.3,503.9 364.3,503.9 L381.3,514.5 C381.3,514.5 381.3,514.5 381.3,514.5 L356.5,554.2 C354.6,557.2 355.5,561.3 358.6,563.2 C359.7,563.9 360.9,564.2 362,564.2 C364.2,564.2 366.3,563.1 367.5,561.2 L392.3,521.5 C392.3,521.5 392.3,521.5 392.4,521.5 L408.3,531.4 Z" id="Shape" fill="#8078EA"></path>
            <path d="M384.9,316.5 C384.9,316.9 385,317.2 385,317.6 C385,317.9 385,318.1 385,318.4 C385,318.8 385,319.2 385,319.6 C385,319.8 384.9,320.1 384.9,320.4 C384.9,320.8 384.8,321.2 384.8,321.6 C384.8,321.8 384.7,322.1 384.7,322.3 C384.6,322.7 384.5,323.1 384.4,323.5 C384.3,323.8 384.2,324 384.2,324.3 C384.1,324.7 384,325 383.9,325.4 C383.8,325.8 383.6,326.1 383.4,326.5 C383.3,326.7 383.2,327 383.1,327.3 C382.8,327.9 382.5,328.5 382.1,329.1 L371.4,346.2 C371.4,346.2 371.4,346.2 371.4,346.2 L337,324.8 C337,324.8 337,324.8 337,324.7 L346.9,308.9 C352.9,299.3 365.2,295.6 374.4,300.6 C374.5,300.7 374.6,300.7 374.7,300.8 C375.1,301 375.5,301.3 375.8,301.5 C376.1,301.7 376.3,301.9 376.6,302.1 C376.9,302.3 377.1,302.5 377.4,302.7 C377.7,302.9 377.9,303.2 378.2,303.4 C378.4,303.6 378.6,303.8 378.9,304 C379.2,304.3 379.4,304.5 379.7,304.8 C379.9,305 380.1,305.2 380.3,305.5 C380.5,305.8 380.8,306.1 381,306.4 C381.2,306.6 381.3,306.9 381.5,307.1 C381.7,307.4 381.9,307.7 382.1,308 C382.2,308.3 382.4,308.5 382.5,308.8 C382.7,309.1 382.8,309.4 383,309.7 C383.1,310 383.3,310.3 383.4,310.6 C383.5,310.9 383.7,311.2 383.8,311.5 C383.9,311.8 384,312.2 384.1,312.5 C384.2,312.8 384.3,313.1 384.4,313.5 C384.5,313.8 384.5,314.2 384.6,314.5 C384.7,314.9 384.7,315.2 384.8,315.5 C384.8,315.9 384.8,316.2 384.9,316.5 Z" id="Shape" fill-opacity="0" fill="#FFFFFF"></path>
            <path d="M354.2,459.6 C354.2,459.7 354.2,459.7 354.2,459.6 L348.5,467.9 C345.2,472.6 344,478.5 345.1,484.1 C346.2,489.3 349,493.7 353.2,496.8 C353.2,496.8 353.2,496.8 353.2,496.8 L180,769.1 C180,769.1 180,769.1 179.9,769.1 C166,758.6 152.8,747.1 140.2,734.8 C140.2,734.8 140.2,734.8 140.2,734.8 L306.2,474.1 C306.9,473.4 307.5,472.5 308.1,471.6 L322.8,448 C322.8,448 322.8,448 322.8,448 L354.2,459.6 Z" id="Shape" fill="#B0A6F4"></path>
            <path d="M296.3,465.5 C296.3,465.5 296.3,465.5 296.3,465.5 C295.5,465.9 294.6,465.9 293.9,465.5 L278.8,456.1 L263.7,446.7 C263,446.2 262.7,445.6 262.6,445.2 C262.5,444.8 262.4,444.1 262.9,443.4 L330.1,335.9 C330.1,335.9 330.1,335.9 330.1,335.9 L364.2,357.2 C364.2,357.2 364.2,357.2 364.2,357.2 L314.6,436.6 L296.3,465.5 Z M339.4,375.9 C342,371.7 340.7,366.3 336.6,363.7 C332.4,361.1 327,362.4 324.4,366.5 C321.8,370.7 323.1,376.1 327.2,378.7 C331.3,381.3 336.8,380 339.4,375.9 Z M320.5,406 C323.1,401.8 321.8,396.4 317.7,393.8 C313.6,391.2 308.1,392.5 305.5,396.6 C302.9,400.8 304.2,406.3 308.3,408.8 C312.4,411.4 317.9,410.2 320.5,406 Z M301.7,436.1 C304.3,431.9 303,426.5 298.9,423.9 C294.8,421.3 289.3,422.6 286.7,426.7 C284.1,430.8 285.4,436.3 289.5,438.9 C293.6,441.5 299.1,440.3 301.7,436.1 Z" id="Shape" fill-opacity="0" fill="#FFFFFF"></path>
            <path d="M286.9,476.5 C287.5,476.8 288,477.1 288.6,477.4 C288.6,477.4 288.6,477.4 288.6,477.4 L130.8,725.3 C130.8,725.3 130.8,725.3 130.7,725.3 C118.1,712.1 106.3,698.3 95.6,683.8 C95.6,683.8 95.6,683.8 95.6,683.8 L249.8,441.5 C249.8,441.5 249.9,441.5 249.9,441.5 C249.2,445 249.6,448.6 251.4,452 C252.7,454.4 254.7,456.4 257,457.8 L266.2,463.6 C266.2,463.6 266.2,463.6 266.2,463.6 L251,488 C249.2,490.9 249.7,494.7 252.4,496.8 C253.6,497.7 255,498.2 256.4,498.2 C258.6,498.2 260.7,497.1 261.9,495.1 L277.3,470.5 C277.3,470.5 277.3,470.5 277.3,470.5 L286.9,476.5 Z" id="Shape" fill="#D0CCFF"></path>
            <path d="M821.5,270.3 C843.4,322.1 854.5,377.2 854.5,434 C854.5,490.8 843.4,545.8 821.5,597.7 C800.3,647.8 770,692.7 731.4,731.4 C692.8,770 647.8,800.3 597.7,821.5 C545.9,843.4 490.8,854.5 434,854.5 C414.1,854.5 394.3,853.1 374.9,850.4 C374.9,850.4 374.9,850.4 374.9,850.3 L534.7,599.2 C534.7,599.2 534.7,599.2 534.7,599.2 L587.9,650 C591.6,653.5 596.4,655.5 601.5,655.5 C602.3,655.5 603.2,655.5 604,655.3 C609.9,654.6 615.1,651.2 618.3,646.2 L654.7,587.9 C656.7,584.7 657.8,581 657.7,577.3 C655.7,390.2 654.1,183.6 655.8,164.8 C657.3,148.5 655,135.2 649,125.5 C645,119 640.5,116.1 638.6,115 C636.8,113.7 632.2,111 624.6,110.2 C613.2,109.1 600.3,112.8 586.3,121.3 C570.1,131.1 383.7,220.3 214.7,300.5 C211.3,302.1 208.5,304.6 206.5,307.8 L170.1,366.1 C166.9,371.1 166.2,377.3 168.2,382.9 C170.1,388.5 174.4,393 180,395 L247.9,420.1 C247.9,420.1 247.9,420.1 247.9,420.1 L87.5,672.1 C87.5,672.1 87.5,672.1 87.4,672.1 C71.3,648.8 57.6,623.9 46.5,597.5 C24.6,545.7 13.5,490.6 13.5,433.8 C13.5,377 24.6,322 46.5,270.1 C67.7,220 98,175.1 136.6,136.4 C175.2,97.7 220.2,67.5 270.3,46.3 C322.2,24.6 377.2,13.5 434,13.5 C490.8,13.5 545.8,24.6 597.7,46.6 C647.8,67.8 692.7,98.1 731.4,136.7 C770,175.3 800.3,220.2 821.5,270.3 Z" id="Shape" fill-opacity="0" fill="#FFFFFF"></path>
            <g id="Group" fill="#FFFFFF">
                <path d="M833.4,265.3 C811.6,213.7 780.3,167.3 740.5,127.5 C700.7,87.7 654.3,56.4 602.7,34.6 C549.3,12 492.5,0.5 434,0.5 C375.5,0.5 318.7,12 265.3,34.6 C213.7,56.4 167.3,87.7 127.5,127.5 C87.7,167.3 56.4,213.7 34.6,265.3 C12,318.7 0.5,375.5 0.5,434 C0.5,492.5 12,549.3 34.6,602.7 C56.4,654.3 87.7,700.7 127.5,740.5 C142.7,755.7 159,769.7 176.1,782.4 C176.1,782.4 176.1,782.4 176.1,782.4 C176.6,783.1 177.2,783.8 178,784.3 C178.6,784.6 179.1,784.9 179.7,785.1 C179.7,785.1 179.7,785.1 179.7,785.1 C206.2,804.3 234.8,820.5 265.2,833.4 C273.8,837 282.5,840.4 291.3,843.5 C291.3,843.5 291.3,843.5 291.3,843.5 C291.8,844.2 292.4,844.8 293.2,845.3 C294.3,846 295.5,846.3 296.7,846.3 C297.4,846.3 298.1,846.2 298.7,846 C298.7,846 298.7,846 298.7,846 C342.1,860.3 387.5,867.5 433.9,867.5 C492.4,867.5 549.2,856 602.6,833.4 C654.2,811.6 700.6,780.3 740.4,740.5 C780.2,700.7 811.5,654.3 833.3,602.7 C855.9,549.2 867.4,492.5 867.4,434 C867.5,375.5 856,318.7 833.4,265.3 Z M130.8,725.3 C118.2,712.1 106.4,698.3 95.7,683.8 C95.7,683.8 95.7,683.8 95.7,683.8 L249.9,441.5 C249.9,441.5 250,441.5 250,441.5 C249.3,445 249.7,448.6 251.5,452 C252.8,454.4 254.8,456.4 257.1,457.8 L266.3,463.6 C266.3,463.6 266.3,463.6 266.3,463.6 L251.1,488 C249.3,490.9 249.8,494.7 252.5,496.8 C253.7,497.7 255.1,498.2 256.5,498.2 C258.7,498.2 260.8,497.1 262,495.1 L277.4,470.5 C277.4,470.5 277.4,470.5 277.4,470.5 L286.9,476.5 C287.4,476.8 288,477.1 288.6,477.4 C288.6,477.4 288.6,477.4 288.6,477.4 L130.8,725.3 C130.8,725.3 130.8,725.3 130.8,725.3 Z M644.7,577.5 C644.7,578.8 644.4,580 643.7,581.1 L607.3,639.4 C606.2,641.1 604.5,642.3 602.4,642.5 C600.4,642.8 598.4,642.1 596.9,640.7 L538,584.4 C538,584.4 538,584.4 538,584.4 L533.8,580.3 C533.8,580.3 533.8,580.3 533.8,580.3 L589.9,490.5 C589.9,490.5 589.9,490.5 589.9,490.5 L604,467.9 C608,461.6 609.6,454.3 608.9,447 C608.9,447 608.9,447 608.9,447 C608.8,446.5 608.8,446 608.7,445.6 C608.7,445.4 608.6,445.3 608.6,445.1 C608.5,444.8 608.5,444.4 608.4,444.1 C608.3,443.9 608.3,443.6 608.2,443.4 C608.2,443.3 608.1,443.1 608.1,443 C608.1,442.9 608,442.7 608,442.6 C608,442.5 607.9,442.3 607.9,442.2 C607.9,442.1 607.8,442 607.8,441.8 C607.7,441.5 607.6,441.3 607.6,441 C607.5,440.7 607.4,440.5 607.4,440.2 C607.3,439.9 607.2,439.7 607.1,439.4 C607,439.1 606.9,438.9 606.8,438.6 C606.7,438.4 606.6,438.1 606.5,437.9 C606.4,437.6 606.3,437.3 606.1,437 C606,436.8 605.9,436.6 605.8,436.4 C605.6,436.1 605.5,435.8 605.3,435.5 C605.2,435.3 605.1,435.2 605.1,435 C604.9,434.7 604.7,434.3 604.5,434 C604.4,433.9 604.4,433.8 604.3,433.7 C604.1,433.3 603.8,432.9 603.6,432.6 C603.6,432.6 603.5,432.5 603.5,432.4 C603.2,432 603,431.6 602.7,431.2 C600.3,427.8 597.1,424.8 593.5,422.5 C593.4,422.5 593.4,422.4 593.3,422.4 C593.3,422.4 593.3,422.4 593.3,422.4 C593.1,422.3 592.9,422.2 592.7,422.1 C592.4,421.9 592.1,421.7 591.8,421.6 C591.8,421.6 591.8,421.6 591.8,421.6 C591.7,421.5 591.6,421.5 591.4,421.4 C583.3,417 573.8,416.2 564.9,419.3 C557.6,421.8 551.4,427 547.3,433.6 L546.8,434.3 C546.8,434.3 546.8,434.3 546.8,434.3 L484.6,533.8 C484.6,533.8 484.6,533.8 484.5,533.8 L460,509.9 C460,509.9 460,509.9 460,509.9 L579.5,295 C579.5,295 579.5,295 579.5,295 L587.2,281.2 L609.8,240.5 C610.6,239.1 610.8,237.5 610.5,235.9 L604.8,211.4 C604.4,209.7 603.4,208.3 601.9,207.3 L583.8,196 L571.7,188.5 C570.2,187.6 568.5,187.3 566.8,187.7 L542.3,193.3 C540.7,193.7 539.4,194.6 538.4,195.9 L513.2,231.9 L362,448.6 C362,448.6 362,448.6 362,448.6 L330,436.8 C330,436.8 330,436.8 330,436.8 L393,336 C397,329.7 398.6,322.4 397.9,315.1 C397.9,315.1 397.9,315.1 397.9,315.1 C397.8,314.6 397.8,314.1 397.7,313.6 C397.7,313.4 397.6,313.3 397.6,313.1 C397.5,312.7 397.5,312.4 397.4,312.1 C397.3,311.9 397.3,311.6 397.2,311.3 C397.2,311.2 397.2,311 397.1,310.9 C397,310.8 397,310.6 397,310.5 C397,310.3 396.9,310.2 396.9,310.1 C396.9,310 396.8,309.9 396.8,309.7 C396.7,309.4 396.7,309.2 396.6,308.9 C396.5,308.6 396.4,308.4 396.4,308.1 C396.3,307.8 396.2,307.6 396.1,307.3 C396,307 395.9,306.8 395.8,306.5 C395.7,306.3 395.6,306 395.5,305.8 C395.4,305.5 395.3,305.2 395.1,304.9 C395,304.7 394.9,304.5 394.8,304.3 C394.7,304 394.5,303.7 394.4,303.4 C394.3,303.3 394.2,303.1 394.2,303 C394,302.6 393.8,302.3 393.6,302 C393.5,301.9 393.5,301.8 393.4,301.7 C393.2,301.3 392.9,300.9 392.7,300.6 C392.7,300.6 392.6,300.5 392.6,300.5 C390,296.5 386.6,293.1 382.5,290.5 C382.5,290.5 382.4,290.4 382.4,290.4 C382.4,290.4 382.4,290.4 382.4,290.4 C382.2,290.3 382,290.2 381.8,290 C381.5,289.8 381.2,289.6 380.9,289.5 C380.9,289.5 380.9,289.5 380.9,289.5 C380.8,289.4 380.6,289.4 380.5,289.3 C372.4,284.9 362.9,284.1 354,287.2 C346.7,289.7 340.6,294.9 336.4,301.5 L336,302.2 C336,302.2 336,302.2 336,302.2 L266.5,413.4 C266.5,413.4 266.5,413.4 266.5,413.4 L184.4,383 C182.5,382.3 181,380.8 180.4,378.9 C179.7,377 180,374.9 181.1,373.2 L217.5,314.9 C218.2,313.8 219.1,313 220.3,312.4 C302.5,273.4 572.2,145.3 593,132.6 C618.1,117.4 629.9,124.9 631,125.7 C631.5,126.2 631.9,126.3 632.5,126.6 C632.5,126.6 635.3,128.1 637.9,132.4 C641,137.4 644.4,146.9 642.8,163.7 C640.6,187.9 643.7,486.5 644.7,577.5 Z M575.3,489 C575.3,489 575.3,489.1 575.3,489 L519.8,577.8 C519.8,577.8 519.8,577.8 519.8,577.8 L508.1,596.5 C507.6,597.2 507,597.5 506.6,597.6 C506.2,597.7 505.5,597.8 504.8,597.3 L474.6,578.5 C473.5,577.8 473.1,576.3 473.8,575.2 L541,467.7 C541,467.7 541,467.7 541,467.7 L575.3,489 Z M548.1,456.6 L558,440.8 C564,431.2 576.3,427.5 585.5,432.5 C585.6,432.6 585.7,432.6 585.8,432.7 C586.2,432.9 586.6,433.2 586.9,433.4 C587.2,433.6 587.4,433.8 587.7,434 C588,434.2 588.2,434.4 588.5,434.6 C588.8,434.8 589,435.1 589.3,435.3 C589.5,435.5 589.7,435.7 590,435.9 C590.2,436.2 590.5,436.4 590.8,436.7 C591,436.9 591.2,437.2 591.4,437.4 C591.6,437.7 591.9,438 592.1,438.3 C592.3,438.5 592.4,438.8 592.6,439 C592.8,439.3 593,439.6 593.2,439.9 C593.4,440.2 593.5,440.4 593.6,440.7 C593.8,441 593.9,441.3 594.1,441.6 C594.2,441.9 594.4,442.2 594.5,442.5 C594.6,442.8 594.8,443.1 594.9,443.5 C595,443.8 595.1,444.1 595.2,444.5 C595.3,444.8 595.4,445.2 595.5,445.5 C595.6,445.8 595.6,446.2 595.7,446.5 C595.8,446.8 595.8,447.2 595.9,447.5 C596,447.8 596,448.1 596,448.4 C596,448.8 596.1,449.2 596.1,449.5 C596.1,449.8 596.1,450 596.1,450.3 C596.1,450.7 596.1,451.1 596.1,451.5 C596.1,451.7 596.1,452 596,452.2 C596,452.6 595.9,453 595.8,453.4 C595.8,453.6 595.7,453.9 595.7,454.1 C595.6,454.5 595.5,454.9 595.4,455.3 C595.3,455.6 595.2,455.8 595.2,456.1 C595.1,456.5 595,456.8 594.8,457.2 C594.7,457.6 594.5,457.9 594.3,458.3 C594.2,458.5 594.1,458.8 594,459 C593.7,459.6 593.4,460.2 593,460.8 L582.3,478 C582.3,478 582.3,478 582.3,478 L548.1,456.6 C548.1,456.7 548,456.6 548.1,456.6 Z M435.9,439 C432.8,437.2 428.8,438.4 426.9,441.4 L388.1,503.4 C388.1,503.4 388.1,503.4 388.1,503.4 L361.6,486.8 C360,485.8 358.7,484.3 358.1,482.6 C357.2,480.1 357.6,477.5 359.1,475.3 L369.5,460.3 C369.6,460.2 369.6,460.2 369.7,460.1 L509.8,259.4 C509.8,259.4 509.8,259.4 509.8,259.4 L537.4,276.6 C537.4,276.6 537.4,276.6 537.4,276.6 L565,293.8 C565,293.8 565,293.8 565,293.8 L446.2,508 C446.1,508.1 446.1,508.2 446,508.3 L437.2,524.2 C436.1,526.1 434.3,527.5 432.2,528.1 C430.1,528.7 427.8,528.3 425.9,527.1 L399.2,510.4 C399.2,510.4 399.2,510.4 399.2,510.4 L438.1,448.1 C440.1,445 439.1,440.9 435.9,439 Z M538.9,262.3 C538.9,262.3 538.9,262.3 538.9,262.3 L517.4,248.9 C517.4,248.9 517.4,248.9 517.4,248.9 L547.7,205.5 C547.7,205.5 547.7,205.5 547.7,205.5 L567.1,201 C567.1,201 567.1,201 567.1,201 L574.3,205.5 C574.3,205.5 574.3,205.5 574.3,205.5 L538.9,262.3 Z M585.4,212.4 C585.4,212.4 585.4,212.4 585.4,212.4 L592.7,216.9 C592.7,216.9 592.7,216.9 592.7,216.9 L597.2,236.3 C597.2,236.3 597.2,236.3 597.2,236.3 L589.1,250.8 L571.5,282.5 C571.5,282.5 571.5,282.5 571.5,282.5 L550,269.1 C550,269.1 550,269.1 550,269.1 L585.4,212.4 Z M364.3,357.2 C364.3,357.2 364.3,357.2 364.3,357.2 L314.7,436.7 L296.3,465.6 C296.3,465.6 296.3,465.6 296.3,465.6 C295.6,466 294.6,466 293.9,465.6 L278.8,456.2 L263.7,446.8 C263,446.4 262.7,445.7 262.6,445.3 C262.5,444.9 262.4,444.2 262.9,443.5 L330.1,336 C330.1,336 330.1,336 330.1,336 L364.3,357.2 Z M337,324.8 L346.9,309 C352.9,299.4 365.2,295.7 374.4,300.7 C374.5,300.8 374.6,300.8 374.7,300.9 C375.1,301.1 375.5,301.4 375.8,301.6 C376.1,301.8 376.3,302 376.6,302.2 C376.9,302.4 377.1,302.6 377.4,302.8 C377.7,303 377.9,303.3 378.2,303.5 C378.4,303.7 378.6,303.9 378.9,304.1 C379.2,304.4 379.4,304.6 379.7,304.9 C379.9,305.1 380.1,305.3 380.3,305.6 C380.5,305.9 380.8,306.2 381,306.5 C381.2,306.7 381.3,307 381.5,307.2 C381.7,307.5 381.9,307.8 382.1,308.1 C382.2,308.4 382.4,308.6 382.5,308.9 C382.7,309.2 382.8,309.5 383,309.9 C383.1,310.2 383.3,310.5 383.4,310.8 C383.5,311.1 383.7,311.4 383.8,311.7 C383.9,312 384,312.4 384.1,312.7 C384.2,313 384.3,313.3 384.4,313.7 C384.5,314 384.5,314.4 384.6,314.7 C384.7,315.1 384.7,315.4 384.8,315.7 C384.9,316 384.9,316.3 384.9,316.6 C384.9,317 385,317.3 385,317.7 C385,318 385,318.2 385,318.5 C385,318.9 385,319.3 385,319.7 C385,319.9 384.9,320.2 384.9,320.5 C384.9,320.9 384.8,321.3 384.8,321.7 C384.8,321.9 384.7,322.2 384.6,322.4 C384.5,322.8 384.4,323.2 384.3,323.6 C384.2,323.9 384.1,324.1 384.1,324.4 C384,324.8 383.9,325.1 383.8,325.5 C383.7,325.9 383.5,326.2 383.3,326.6 C383.2,326.8 383.1,327.1 383,327.4 C382.7,328 382.4,328.6 382,329.2 L371.3,346.3 C371.3,346.3 371.3,346.3 371.3,346.3 L337,324.8 C337,324.8 337,324.8 337,324.8 Z M179.9,769.1 C166,758.6 152.8,747.1 140.2,734.8 C140.2,734.8 140.2,734.8 140.2,734.8 L306.2,474.1 C306.9,473.4 307.5,472.5 308.1,471.6 L322.8,448 C322.8,448 322.8,448 322.8,448 L354.1,459.6 C354.1,459.6 354.1,459.6 354.1,459.6 L348.3,467.8 C345,472.5 343.8,478.4 344.9,484 C346,489.2 348.8,493.6 353,496.7 C353,496.7 353,496.7 353,496.7 L179.9,769.1 C180,769.1 180,769.1 179.9,769.1 Z M234.6,804.3 C219.3,796.1 204.6,786.9 190.5,776.9 C190.5,776.9 190.5,776.9 190.5,776.9 L364.3,503.9 C364.3,503.9 364.3,503.9 364.3,503.9 L381.3,514.5 C381.3,514.5 381.3,514.5 381.3,514.5 L356.5,554.2 C354.6,557.2 355.5,561.2 358.6,563.2 C359.7,563.9 360.9,564.2 362,564.2 C364.2,564.2 366.3,563.1 367.5,561.2 L392.3,521.5 C392.3,521.5 392.3,521.5 392.4,521.5 L408.4,531.5 C408.4,531.5 408.4,531.5 408.4,531.5 L234.6,804.3 C234.6,804.3 234.6,804.3 234.6,804.3 Z M294.8,830.9 C294.8,830.9 294.7,830.9 294.8,830.9 C286.6,828 278.4,824.9 270.4,821.5 C262.2,818.1 254.2,814.3 246.3,810.4 C246.3,810.4 246.3,810.4 246.3,810.4 L419.4,538.4 C419.4,538.4 419.4,538.4 419.4,538.4 C422.7,540.4 426.4,541.4 430.2,541.4 C432,541.4 433.7,541.2 435.4,540.7 C441,539.3 445.7,535.5 448.5,530.5 L453.4,521.7 C453.4,521.7 453.4,521.7 453.4,521.7 L477.5,544.7 C477.5,544.7 477.5,544.7 477.5,544.7 L294.8,830.9 Z M360.8,848.2 C342.8,845 325,840.7 307.5,835.2 C307.5,835.2 307.5,835.2 307.5,835.2 L465.5,587.9 C465.5,587.9 465.5,587.9 465.5,587.9 C466.2,588.5 466.9,589.1 467.8,589.6 L477.3,595.6 C477.3,595.6 477.3,595.6 477.3,595.6 L462.1,620 C460.3,622.9 460.8,626.7 463.5,628.8 C464.7,629.7 466.1,630.2 467.5,630.2 C469.7,630.2 471.8,629.1 473,627.1 L488.4,602.5 C488.4,602.5 488.4,602.5 488.4,602.5 L497.9,608.5 C500.4,610 503.2,610.8 506,610.8 C507.2,610.8 508.3,610.7 509.5,610.4 C510.7,610.1 511.8,609.7 512.8,609.2 C512.8,609.2 512.8,609.2 512.8,609.2 L360.8,848.2 C360.8,848.2 360.8,848.2 360.8,848.2 Z M821.5,597.7 C800.3,647.8 770,692.7 731.4,731.4 C692.8,770.1 647.8,800.3 597.7,821.5 C545.9,843.4 490.8,854.6 434,854.6 C414.1,854.6 394.3,853.2 374.9,850.5 C374.9,850.5 374.9,850.5 374.9,850.5 L534.7,599.4 C534.7,599.4 534.7,599.4 534.7,599.4 L587.9,650.2 C591.6,653.7 596.4,655.7 601.5,655.7 C602.3,655.7 603.2,655.7 604,655.5 C609.9,654.8 615.1,651.4 618.3,646.4 L654.7,588.1 C656.7,584.9 657.8,581.2 657.7,577.5 C655.7,390.4 654.1,183.8 655.8,165 C657.3,148.7 655,135.4 649,125.7 C645,119.2 640.6,116.3 638.6,115.2 C636.8,113.9 632.2,111.2 624.6,110.4 C613.2,109.3 600.3,113 586.3,121.5 C570.1,131.3 383.7,220.5 214.7,300.7 C211.3,302.3 208.5,304.8 206.5,308 L170.1,366.3 C166.9,371.3 166.2,377.5 168.2,383.1 C170.1,388.7 174.4,393.2 180,395.2 L247.9,420.3 C247.9,420.3 247.9,420.3 247.9,420.3 L87.5,672.3 C87.5,672.3 87.5,672.3 87.5,672.3 C71.4,649 57.7,624.1 46.6,597.7 C24.7,545.9 13.6,490.8 13.6,434 C13.6,377.2 24.7,322.2 46.6,270.3 C67.8,220.2 98.1,175.3 136.7,136.6 C175.3,98 220.3,67.7 270.4,46.5 C322.2,24.6 377.3,13.5 434.1,13.5 C490.9,13.5 545.9,24.6 597.8,46.5 C647.9,67.7 692.8,98 731.5,136.6 C770.2,175.2 800.4,220.2 821.6,270.3 C843.5,322.1 854.6,377.2 854.6,434 C854.5,490.8 843.4,545.8 821.5,597.7 Z" id="Shape"></path>
                <path d="M535.3,498.3 C532.7,502.5 534,508 538.1,510.5 C542.3,513.1 547.7,511.8 550.3,507.7 C552.9,503.5 551.6,498.1 547.5,495.5 C543.4,492.9 537.9,494.1 535.3,498.3 Z" id="Shape"></path>
                <path d="M528.7,525.6 C524.5,523 519.1,524.3 516.5,528.4 C513.9,532.6 515.2,538 519.3,540.6 C523.5,543.2 529,541.9 531.5,537.8 C534.2,533.7 532.9,528.2 528.7,525.6 Z" id="Shape"></path>
                <path d="M509.9,555.8 C505.7,553.2 500.2,554.5 497.7,558.6 C495.1,562.8 496.4,568.3 500.5,570.8 C504.7,573.4 510.1,572.1 512.7,568 C515.3,563.8 514.1,558.4 509.9,555.8 Z" id="Shape"></path>
                <path d="M498.6,339.1 C502.8,341.7 508.3,340.4 510.8,336.3 C513.4,332.1 512.1,326.7 508,324.1 C503.8,321.5 498.4,322.8 495.8,326.9 C493.1,331 494.4,336.5 498.6,339.1 Z" id="Shape"></path>
                <path d="M479.7,369.2 C483.9,371.8 489.4,370.5 491.9,366.4 C494.5,362.2 493.2,356.7 489.1,354.2 C484.9,351.6 479.4,352.9 476.9,357 C474.3,361.2 475.6,366.6 479.7,369.2 Z" id="Shape"></path>
                <path d="M460.9,399.4 C465.1,402 470.5,400.7 473.1,396.6 C475.7,392.4 474.4,387 470.3,384.4 C466.1,381.8 460.7,383.1 458.1,387.2 C455.5,391.3 456.7,396.8 460.9,399.4 Z" id="Shape"></path>
                <path d="M324.3,366.4 C321.7,370.6 323,376 327.1,378.6 C331.3,381.2 336.7,379.9 339.3,375.8 C341.9,371.6 340.6,366.2 336.5,363.6 C332.4,361 326.9,362.3 324.3,366.4 Z" id="Shape"></path>
                <path d="M317.7,393.8 C313.5,391.2 308.1,392.5 305.5,396.6 C302.9,400.8 304.2,406.3 308.3,408.8 C312.5,411.4 318,410.1 320.5,406 C323.1,401.8 321.9,396.3 317.7,393.8 Z" id="Shape"></path>
                <path d="M298.9,423.9 C294.7,421.3 289.2,422.6 286.7,426.7 C284.1,430.9 285.4,436.3 289.5,438.9 C293.7,441.5 299.1,440.2 301.7,436.1 C304.3,432 303,426.5 298.9,423.9 Z" id="Shape"></path>
            </g>
        </g>
    </g>
</svg>