<?xml version="1.0" encoding="utf-8"?>
<!-- Generator: Adobe Illustrator 22.0.1, SVG Export Plug-In . SVG Version: 6.00 Build 0)  -->
<svg version="1.1" id="Calque_1" xmlns="http://www.w3.org/2000/svg" xmlns:xlink="http://www.w3.org/1999/xlink" x="0px" y="0px"
	 viewBox="0 0 200 200" style="enable-background:new 0 0 200 200;" xml:space="preserve">
<style type="text/css">
	.st0{fill:none;stroke:#292CD6;stroke-width:6;stroke-linecap:round;stroke-linejoin:round;stroke-miterlimit:10;}
	.st1{fill:#292CD6;}
</style>
<g>
	<path class="st1" d="M171.8,46h-5.6C164.7,33.4,154,23.7,141,23.7s-23.7,9.8-25.1,22.3H28.2C22.6,46,18,50.6,18,56.2v87.6
		c0,5.6,4.6,10.2,10.2,10.2h27.9v28c0,1.1,0.6,2.1,1.5,2.6c0.5,0.3,1,0.4,1.5,0.4c0.5,0,1.1-0.2,1.6-0.5L110,154h61.8
		c5.6,0,10.2-4.6,10.2-10.2V56.2C182,50.6,177.4,46,171.8,46z M141,29.7c10.7,0,19.3,8.7,19.3,19.3s-8.7,19.3-19.3,19.3
		c-10.7,0-19.3-8.7-19.3-19.3S130.3,29.7,141,29.7z M176,143.8c0,2.3-1.9,4.2-4.2,4.2h-62.6c-0.6,0-1.1,0.2-1.6,0.5l-45.4,28.2V151
		c0-1.7-1.3-3-3-3H28.2c-2.3,0-4.2-1.9-4.2-4.2V56.2c0-2.3,1.9-4.2,4.2-4.2h87.6c1.5,12.6,12.2,22.3,25.1,22.3s23.7-9.8,25.2-22.3
		h5.6c2.3,0,4.2,1.9,4.2,4.2V143.8z"/>
	<path class="st1" d="M134.6,47c1,0.8,2.4,0.8,3.4,0.1v12.6c0,1.7,1.3,3,3,3s3-1.3,3-3V38.2c0-1.3-0.8-2.4-2.1-2.9
		c-1.2-0.4-2.6,0-3.4,1.1l-4.7,6.3C132.9,44.1,133.2,46,134.6,47z"/>
	<path class="st1" d="M66.7,72.3L52.5,86.4l-5.3-5.3c-1.2-1.2-3.1-1.2-4.2,0c-1.2,1.2-1.2,3.1,0,4.2l7.4,7.4
		c0.6,0.6,1.4,0.9,2.1,0.9s1.5-0.3,2.1-0.9l16.2-16.2c1.2-1.2,1.2-3.1,0-4.2C69.7,71.1,67.8,71.1,66.7,72.3z"/>
	<path class="st1" d="M156.7,83.8h-76c-1.7,0-3,1.3-3,3s1.3,3,3,3h76c1.7,0,3-1.3,3-3S158.3,83.8,156.7,83.8z"/>
	<path class="st1" d="M156.7,99.2h-76c-1.7,0-3,1.3-3,3c0,1.7,1.3,3,3,3h76c1.7,0,3-1.3,3-3C159.7,100.5,158.3,99.2,156.7,99.2z"/>
	<path class="st1" d="M125.5,114.6H80.7c-1.7,0-3,1.3-3,3s1.3,3,3,3h44.9c1.7,0,3-1.3,3-3S127.2,114.6,125.5,114.6z"/>
</g>
</svg>
