<?xml version="1.0" encoding="UTF-8" standalone="no"?>
<svg
   xmlns:dc="http://purl.org/dc/elements/1.1/"
   xmlns:cc="http://creativecommons.org/ns#"
   xmlns:rdf="http://www.w3.org/1999/02/22-rdf-syntax-ns#"
   xmlns:svg="http://www.w3.org/2000/svg"
   xmlns="http://www.w3.org/2000/svg"
   viewBox="0 0 14.17475 14.17475"
   height="14.17475"
   width="14.17475"
   xml:space="preserve"
   version="1.1"
   id="svg4244"><metadata
     id="metadata4250"><rdf:RDF><cc:Work
         rdf:about=""><dc:format>image/svg+xml</dc:format><dc:type
           rdf:resource="http://purl.org/dc/dcmitype/StillImage" /><dc:title></dc:title></cc:Work></rdf:RDF></metadata><defs
     id="defs4248"><clipPath
       id="clipPath4258"
       clipPathUnits="userSpaceOnUse"><path
         id="path4260"
         d="m 0,11.34 11.34,0 L 11.34,0 0,0 0,11.34 Z" /></clipPath></defs><g
     transform="matrix(1.25,0,0,-1.25,0,14.17475)"
     id="g4252"><g
       style="stroke:#58928a;stroke-opacity:1"
       transform="matrix(0.97909434,0.20340668,-0.20340668,0.97909434,1.2718042,-1.0347843)"
       id="g4254"><g
         style="stroke:#58928a;stroke-opacity:1"
         clip-path="url(#clipPath4258)"
         id="g4256"><g
           style="stroke:#58928a;stroke-opacity:1"
           transform="translate(0.563,5.6699)"
           id="g4262"><path
             id="path4264"
             style="fill:none;stroke:#58928a;stroke-width:1;stroke-linecap:butt;stroke-linejoin:miter;stroke-miterlimit:10;stroke-dasharray:none;stroke-opacity:1"
             d="m 0,0 c 0,2.82 2.287,5.107 5.107,5.107 2.82,0 5.107,-2.287 5.107,-5.107 0,-2.82 -2.287,-5.107 -5.107,-5.107 C 2.287,-5.107 0,-2.82 0,0 Z" /></g><g
           style="stroke:#58928a;stroke-opacity:1"
           transform="translate(8.4111,5.6704)"
           id="g4266"><path
             id="path4268"
             style="fill:none;stroke:#58928a;stroke-width:1;stroke-linecap:butt;stroke-linejoin:miter;stroke-miterlimit:10;stroke-dasharray:none;stroke-opacity:1"
             d="m 0,0 c 0,2.819 -1.259,5.106 -2.811,5.106 -1.552,0 -2.811,-2.287 -2.811,-5.106 0,-2.823 1.259,-5.108 2.811,-5.108 C -1.259,-5.108 0,-2.823 0,0 Z" /></g><g
           style="stroke:#58928a;stroke-opacity:1"
           transform="translate(5.6699,10.647)"
           id="g4270"><path
             id="path4272"
             style="fill:none;stroke:#58928a;stroke-width:1;stroke-linecap:butt;stroke-linejoin:miter;stroke-miterlimit:10;stroke-dasharray:none;stroke-opacity:1"
             d="M 0,0 0,-9.855" /></g><g
           style="stroke:#58928a;stroke-opacity:1"
           transform="translate(0.563,5.6699)"
           id="g4274"><path
             id="path4276"
             style="fill:none;stroke:#58928a;stroke-width:1;stroke-linecap:butt;stroke-linejoin:miter;stroke-miterlimit:10;stroke-dasharray:none;stroke-opacity:1"
             d="M 0,0 10.214,0" /></g></g></g></g></svg>