<?xml version="1.0" encoding="UTF-8"?>
<svg width="856px" height="856px" viewBox="0 0 856 856" version="1.1" xmlns="http://www.w3.org/2000/svg" xmlns:xlink="http://www.w3.org/1999/xlink">
    <!-- Generator: Sketch 48.2 (47327) - http://www.bohemiancoding.com/sketch -->
    <title>planet</title>
    <desc>Created with Sketch.</desc>
    <defs></defs>
    <g id="Page-1" stroke="none" stroke-width="1" fill="none" fill-rule="evenodd">
        <g id="submarine-window-red-sea-bed-by-Vexels" fill-rule="nonzero">
            <g id="Group">
                <g id="Shape">
                    <path d="M236.676,115.951 C244.382,123.659 257.829,122.835 266.545,114.117 L348.687,31.976 C357.408,23.256 370.85,22.429 378.561,30.138 C386.277,37.856 385.446,51.295 376.727,60.012 L341.429,95.31 C341.048,95.75 340.663,96.187 340.246,96.604 L295.202,141.646 L213.061,223.789 C204.343,232.507 203.522,245.954 211.23,253.662 C218.471,260.905 230.774,260.609 239.465,253.317 L390.947,101.837 C399.666,93.114 413.114,92.288 420.825,99.998 C428.536,107.712 427.708,121.158 418.987,129.877 L394.927,153.936 C386.207,162.659 385.379,176.101 393.089,183.81 C399.416,190.137 409.599,190.703 417.873,185.889 L477.739,126.024 C479.306,124.457 481.023,123.152 482.835,122.106 L492.067,112.873 C500.789,104.153 514.233,103.326 521.941,111.035 C529.652,118.746 528.821,132.187 520.1,140.908 L374.677,286.332 C369.869,294.605 370.434,304.787 376.759,311.112 C384.003,318.355 396.307,318.064 404.997,310.772 L410.181,305.586 C410.709,305.056 411.26,304.561 411.82,304.09 L488.772,227.138 C497.494,218.415 510.938,217.588 518.646,225.297 C526.361,233.01 525.533,246.457 516.812,255.177 L412.672,359.318 C405.376,368.009 405.078,380.313 412.323,387.557 C420.033,395.268 433.48,394.444 442.199,385.721 L511.304,316.617 C512.405,315.517 513.576,314.544 514.807,313.697 L558.808,269.694 C567.527,260.975 580.978,260.149 588.684,267.856 C596.397,275.569 595.566,289.011 586.843,297.733 L504.703,379.873 C495.984,388.593 495.163,402.037 502.876,409.748 C510.119,416.991 522.419,416.696 531.108,409.404 L581.339,359.172 C581.869,358.645 582.411,358.147 582.979,357.675 L614.884,325.774 L659.927,280.728 C668.647,272.007 682.091,271.181 689.802,278.892 C697.513,286.605 696.685,300.047 687.966,308.767 L538.782,457.951 C531.49,466.646 531.201,478.947 538.439,486.187 C544.762,492.511 554.947,493.082 563.223,488.267 L602.523,448.968 C611.244,440.249 624.686,439.421 632.396,447.13 C640.107,454.841 639.276,468.28 630.556,477.001 L624.325,483.231 C623.277,485.045 621.978,486.758 620.41,488.327 L544.5,564.237 C539.687,572.505 540.262,582.69 546.587,589.018 C553.832,596.26 566.13,595.967 574.823,588.67 L771.344,392.149 C780.067,383.426 793.513,382.601 801.226,390.316 C808.937,398.027 808.108,411.464 799.385,420.187 L733.174,486.4 C732.706,486.966 732.208,487.507 731.68,488.035 L728.788,490.928 C721.495,499.621 721.206,511.924 728.445,519.164 C735.398,526.115 747.013,526.109 755.625,519.641 L795.988,479.276 C804.708,470.555 818.152,469.729 825.863,477.442 C833.574,485.151 832.745,498.594 824.023,507.313 L812.713,518.626 C812.013,519.55 811.261,520.456 810.414,521.304 L739.589,592.13 C733.114,600.747 733.092,612.368 740.053,619.329 C747.759,627.034 761.205,626.208 769.92,617.493 L837.346,550.069 C880.566,404.677 844.78,240.803 729.99,126.01 C615.204,11.224 451.324,-24.564 305.929,18.653 L238.505,86.077 C229.789,94.792 228.969,108.244 236.676,115.951 Z" fill="#7FE0FB"></path>
                    <path d="M611.984,775.432 L636.044,751.371 C644.764,742.652 645.588,729.207 637.884,721.5 C630.921,714.537 619.3,714.562 610.684,721.035 L525.29,806.426 C516.568,815.149 503.137,815.979 495.424,808.266 C487.715,800.553 488.535,787.116 497.258,778.393 L508.551,767.1 C509.251,766.164 510.01,765.254 510.862,764.403 L626.753,648.51 C633.221,639.903 633.23,628.285 626.278,621.33 C619.037,614.09 606.727,614.391 598.036,621.678 L446.557,773.158 C437.834,781.881 424.392,782.707 416.682,775 C408.966,767.283 409.795,753.844 418.518,745.119 L442.577,721.06 C451.296,712.339 452.13,698.896 444.417,691.187 C438.091,684.861 427.905,684.289 419.631,689.105 L335.285,773.451 C326.564,782.174 313.127,782.996 305.418,775.285 C297.706,767.576 298.529,754.137 307.248,745.416 L313.48,739.186 C314.537,737.375 315.835,735.655 317.401,734.09 L438.35,613.141 C443.165,604.866 442.594,594.682 436.27,588.36 C429.031,581.12 416.724,581.411 408.033,588.702 L402.847,593.888 C402.317,594.419 401.773,594.913 401.208,595.386 L324.256,672.333 C315.533,681.058 302.09,681.884 294.38,674.175 C286.667,666.46 287.495,653.019 296.218,644.296 L400.36,540.154 C407.655,531.461 407.95,519.162 400.706,511.918 C392.994,504.205 379.548,505.029 370.825,513.75 L301.724,582.852 C300.624,583.954 299.453,584.926 298.22,585.776 L254.216,629.774 C245.493,638.497 232.051,639.323 224.343,631.616 C216.63,623.903 217.46,610.462 226.179,601.741 L308.322,519.6 C317.045,510.879 317.862,497.438 310.153,489.727 C302.908,482.481 290.606,482.776 281.919,490.069 L231.688,540.301 C231.162,540.826 230.613,541.324 230.051,541.793 L198.143,573.701 L153.096,618.748 C144.38,627.463 130.938,628.295 123.223,620.578 C115.514,612.871 116.342,599.426 125.058,590.709 L274.245,441.523 C281.54,432.832 281.831,420.528 274.59,413.281 C268.265,406.959 258.083,406.39 249.806,411.203 L234.985,426.025 C233.418,427.591 231.698,428.897 229.888,429.941 L220.651,439.179 C211.93,447.898 198.495,448.728 190.783,441.017 C183.072,433.306 183.898,419.87 192.62,411.147 L293.004,310.76 C297.819,302.485 297.251,292.305 290.922,285.978 C283.675,278.729 271.376,279.027 262.683,286.321 L66.157,482.85 C57.437,491.571 43.992,492.391 36.282,484.682 C28.571,476.971 29.397,463.53 38.118,454.811 L104.331,388.597 C104.803,388.036 105.298,387.486 105.824,386.962 L108.717,384.066 C116.009,375.375 116.304,363.074 109.06,355.831 C101.355,348.123 87.902,348.947 79.182,357.667 L55.124,381.725 C46.404,390.448 32.961,391.28 25.249,383.569 C17.535,375.854 18.366,362.41 27.085,353.69 L62.322,318.458 C62.72,317.999 63.122,317.54 63.56,317.104 L132.665,247.999 C141.386,239.278 142.209,225.832 134.503,218.125 C126.795,210.417 113.346,211.238 104.625,219.959 L80.566,244.018 C71.847,252.739 58.407,253.57 50.695,245.861 C48.218,243.381 46.629,240.306 45.894,236.996 C-34.088,396.932 -7.405,596.614 125.993,730.01 C259.389,863.408 459.068,890.09 619.012,810.112 C615.699,809.38 612.626,807.79 610.149,805.311 C602.44,797.596 603.264,784.15 611.984,775.432 Z" fill="#5EC7EC"></path>
                    <path d="M792.071,651.426 C811.787,619.36 826.891,585.26 837.346,550.069 L769.92,617.493 C761.205,626.208 747.759,627.034 740.053,619.329 C733.092,612.368 733.115,600.747 739.589,592.13 L810.414,521.304 C811.261,520.456 812.013,519.55 812.713,518.626 L824.023,507.313 C832.745,498.594 833.574,485.151 825.863,477.442 C818.152,469.729 804.708,470.555 795.988,479.276 L755.625,519.641 C747.014,526.11 735.398,526.116 728.445,519.164 C721.206,511.924 721.495,499.621 728.788,490.928 L731.68,488.035 C732.208,487.508 732.706,486.967 733.174,486.4 L799.386,420.189 C808.109,411.466 808.938,398.029 801.227,390.318 C793.514,382.603 780.068,383.428 771.345,392.151 L574.823,588.672 C566.13,595.969 553.832,596.262 546.587,589.02 C540.262,582.692 539.687,572.506 544.5,564.239 L620.41,488.329 C621.978,486.761 623.277,485.048 624.325,483.233 L630.556,477.003 C639.276,468.282 640.107,454.843 632.396,447.132 C624.686,439.423 611.244,440.251 602.523,448.97 L563.223,488.269 C554.947,493.083 544.762,492.513 538.439,486.189 C531.201,478.949 531.49,466.648 538.782,457.953 L687.968,308.769 C696.687,300.049 697.515,286.607 689.804,278.894 C682.093,271.183 668.649,272.009 659.929,280.73 L614.886,325.776 L582.981,357.677 C582.414,358.149 581.872,358.647 581.341,359.174 L531.11,409.406 C522.421,416.698 510.121,416.993 502.878,409.75 C495.165,402.039 495.986,388.595 504.705,379.875 L586.845,297.735 C595.568,289.013 596.399,275.571 588.686,267.858 C580.98,260.151 567.529,260.977 558.81,269.696 L514.809,313.699 C513.579,314.546 512.407,315.519 511.306,316.619 L442.201,385.723 C433.482,394.446 420.035,395.27 412.325,387.559 C405.08,380.315 405.378,368.011 412.674,359.32 L516.814,255.179 C525.535,246.459 526.363,233.012 518.648,225.299 C510.94,217.59 497.496,218.417 488.774,227.14 L411.822,304.092 C411.262,304.563 410.712,305.058 410.183,305.588 L404.999,310.774 C396.309,318.066 384.005,318.357 376.761,311.114 C370.436,304.789 369.871,294.607 374.679,286.334 L520.105,140.909 C528.826,132.188 529.657,118.747 521.946,111.036 C514.238,103.327 500.794,104.154 492.072,112.874 L482.84,122.107 C481.028,123.153 479.312,124.458 477.744,126.025 L417.878,185.89 C409.604,190.703 399.421,190.138 393.094,183.811 C385.384,176.102 386.212,162.66 394.932,153.937 L418.992,129.878 C427.713,121.159 428.541,107.713 420.83,99.999 C413.119,92.289 399.671,93.115 390.952,101.838 L239.47,253.318 C230.779,260.61 218.476,260.906 211.235,253.663 C203.527,245.955 204.348,232.508 213.066,223.79 L295.207,141.647 L340.251,96.605 C340.668,96.188 341.053,95.751 341.434,95.311 L376.732,60.013 C385.451,51.296 386.282,37.857 378.566,30.139 C370.855,22.43 357.413,23.257 348.692,31.977 L266.55,114.118 C257.834,122.836 244.387,123.66 236.681,115.952 C228.974,108.245 229.794,94.794 238.51,86.078 L305.934,18.654 C270.746,29.112 236.652,44.221 204.584,63.933 C176.632,81.121 150.215,101.794 126.001,126.01 C101.783,150.226 81.111,176.641 63.926,204.591 C57.419,215.178 51.398,225.99 45.901,236.992 C46.635,240.303 48.225,243.377 50.702,245.857 C58.414,253.566 71.854,252.735 80.573,244.014 L104.632,219.955 C113.353,211.234 126.802,210.413 134.51,218.121 C142.216,225.828 141.393,239.274 132.672,247.995 L63.567,317.1 C63.129,317.537 62.727,317.996 62.329,318.454 L27.092,353.686 C18.373,362.406 17.542,375.85 25.256,383.565 C32.968,391.276 46.411,390.444 55.131,381.721 L79.189,357.663 C87.909,348.943 101.362,348.119 109.067,355.827 C116.311,363.07 116.016,375.371 108.724,384.062 L105.831,386.958 C105.305,387.481 104.81,388.032 104.338,388.593 L38.125,454.807 C29.404,463.526 28.578,476.967 36.289,484.678 C43.999,492.387 57.444,491.567 66.164,482.846 L262.689,286.317 C271.382,279.023 283.681,278.725 290.928,285.974 C297.257,292.301 297.825,302.481 293.01,310.756 L192.618,411.148 C183.896,419.871 183.07,433.307 190.781,441.018 C198.493,448.729 211.928,447.899 220.649,439.18 L229.886,429.942 C231.696,428.899 233.415,427.593 234.983,426.026 L249.804,411.204 C258.081,406.391 268.263,406.96 274.588,413.282 C281.829,420.529 281.538,432.832 274.243,441.524 L125.058,590.709 C116.342,599.426 115.514,612.871 123.223,620.578 C130.938,628.295 144.38,627.463 153.096,618.748 L198.143,573.701 L230.051,541.793 C230.613,541.324 231.161,540.826 231.688,540.301 L281.919,490.069 C290.607,482.776 302.908,482.481 310.153,489.727 C317.862,497.438 317.045,510.879 308.322,519.6 L226.18,601.74 C217.461,610.461 216.631,623.902 224.344,631.615 C232.052,639.322 245.494,638.496 254.217,629.773 L298.221,585.775 C299.454,584.925 300.625,583.953 301.725,582.851 L370.826,513.749 C379.549,505.028 392.995,504.204 400.707,511.917 C407.951,519.161 407.656,531.46 400.361,540.153 L296.219,644.295 C287.496,653.018 286.668,666.459 294.381,674.174 C302.091,681.883 315.534,681.057 324.257,672.332 L401.209,595.385 C401.773,594.912 402.317,594.418 402.848,593.887 L408.034,588.701 C416.725,581.41 429.032,581.119 436.271,588.359 C442.595,594.681 443.167,604.865 438.351,613.14 L317.401,734.09 C315.836,735.654 314.537,737.375 313.48,739.186 L307.248,745.416 C298.529,754.137 297.706,767.576 305.418,775.285 C313.127,782.996 326.564,782.174 335.285,773.451 L419.631,689.105 C427.905,684.289 438.091,684.861 444.417,691.187 C452.13,698.896 451.296,712.339 442.577,721.06 L418.518,745.119 C409.795,753.844 408.966,767.283 416.682,775 C424.392,782.707 437.834,781.881 446.557,773.158 L598.036,621.678 C606.727,614.391 619.037,614.09 626.278,621.33 C633.229,628.285 633.22,639.902 626.753,648.51 L510.861,764.402 C510.009,765.254 509.251,766.164 508.55,767.099 L497.257,778.392 C488.534,787.115 487.714,800.552 495.423,808.265 C503.136,815.978 516.568,815.148 525.289,806.425 L610.683,721.034 C619.299,714.561 630.92,714.536 637.883,721.499 C645.587,729.206 644.763,742.651 636.043,751.37 L611.983,775.431 C603.262,784.15 602.439,797.595 610.148,805.306 C612.626,807.785 615.698,809.374 619.011,810.107 C630.008,804.607 640.82,798.586 651.41,792.082 C679.364,774.9 705.771,754.223 729.988,730.004 C754.206,705.789 774.889,679.377 792.071,651.426 Z" fill="#3BD0F8"></path>
                </g>
                <path d="M402.411,423.827 C395.133,431.104 383.332,431.104 376.056,423.827 C368.775,416.549 368.775,404.746 376.053,397.469 C383.327,390.194 395.135,390.187 402.414,397.469 C409.688,404.746 409.688,416.551 402.411,423.827 Z" id="Shape" fill="#7FE0FB"></path>
                <path d="M707.543,567.369 C700.265,574.644 688.468,574.64 681.191,567.367 C673.91,560.086 673.906,548.289 681.184,541.01 C688.462,533.731 700.264,533.733 707.542,541.014 C714.821,548.289 714.823,560.086 707.543,567.369 Z" id="Shape" fill="#7FE0FB"></path>
                <path d="M283.793,714.352 C276.515,721.629 264.716,721.622 257.437,714.344 C250.161,707.067 250.161,695.27 257.437,687.994 C264.716,680.715 276.515,680.711 283.791,687.986 C291.071,695.268 291.074,707.07 283.793,714.352 Z" id="Shape" fill="#3BD0F8"></path>
                <path d="M157.102,334.528 C149.542,342.089 137.279,342.089 129.713,334.526 C122.15,326.962 122.15,314.697 129.713,307.137 L162.74,274.108 C170.305,266.545 182.564,266.546 190.131,274.112 C197.693,281.675 197.694,293.935 190.131,301.498 L157.102,334.528 Z" id="Shape" fill="#5EC7EC"></path>
                <path d="M488.728,564.188 C481.167,571.749 468.909,571.751 461.346,564.188 C453.781,556.625 453.781,544.368 461.342,536.807 L494.369,503.778 C501.934,496.212 514.194,496.212 521.76,503.776 C529.323,511.339 529.321,523.596 521.755,531.161 L488.728,564.188 Z" id="Shape" fill="#7FE0FB"></path>
            </g>
        </g>
    </g>
</svg>